<svg xmlns="http://www.w3.org/2000/svg" xml:space="preserve" id="Слой_1" x="0" y="0" style="enable-background:new 0 0 105.6 88.7" version="1.1" viewBox="0 0 105.6 88.7"><style>.st0{fill:#264f26}</style><g id="Слой_2_00000068663338377666960160000008954671491852081283_"><g id="Слой_1-2"><path d="M96.9 88.2c-19.5.2-58.7.4-78.1.4h-.4v-.4l-.1-38.9v-.5h.5c19.5 0 58.7.1 78.1.2h.3v.3l-.3 38.9zm0 0-.3-38.9.3.3c-19.5.1-58.7.2-78.1.2l.5-.5-.1 38.9-.4-.4c19.4 0 58.6.3 78.1.4z" class="st0"/><path d="M27.7 49.3c-.2-10.1-.3-20.2-.4-30.4h.4l15.1-.1c13.4-.1 31.8 0 45.2.1h.4v.4c-.1 7.5-.2 22.5-.4 30-.2-7.5-.3-22.5-.4-30l.4.4c-13.4.1-31.8.1-45.2.1l-15.1-.1.4-.4c-.1 10.1-.2 20.1-.4 30z" class="st0"/><path d="M37.3 19.4C37.1 13 37 6.5 36.9.1c7-.1 14 0 20.9-.1s13.9 0 20.9.1c-.1 6.4-.2 12.8-.4 19.2-.2-6.2-.3-12.5-.3-18.8l.4.4C64.7 1 51 1 37.4.9l.3-.4c-.1 6.3-.2 12.6-.4 18.9zM27.7 42.1c14.5-.7 29.2-.7 43.7 0-14.6.7-29.2.7-43.7 0zM71.3 42c-3.9-.6-13.8-4-8.3-9 5.8-4.7 8.3 4.8 8.3 9zm0 0c-.8-3.3-2.8-12.4-7.6-8.3-4.8 3.9 4.8 7.1 7.6 8.3zM71.6 42.3c-2.2 2.1-8.4 5.5-7.3 9-2.6-3.8 4.3-8.1 7.3-9z" class="st0"/><path d="M74.1 42c0 2.6-2.9 2.5-3 0 .1-2.5 3-2.6 3 0zm0 0c-.1-1.8-2-2-2 0s2 1.8 2 0z" class="st0"/><path d="M71.3 42.1c-1.8-.8-7.3-3.8-4.9-6.1 2.8-1.8 4.6 4.2 4.9 6.1zm0 0c-.7-1-2.9-6.3-4.3-5.4-1.1 1.2 3.5 4.5 4.3 5.4zM74.4 42c2.8-1.2 12.4-4.4 7.6-8.3-4.8-4.1-6.8 5-7.6 8.3zm0 0c.1-4.2 2.5-13.7 8.3-9 5.5 5-4.4 8.4-8.3 9zM74.1 42.3c3 .9 9.9 5.2 7.3 9 1.2-3.5-5-6.9-7.3-9z" class="st0"/><path d="M74.4 42.1c.9-.9 5.5-4.2 4.3-5.4-1.3-.8-3.6 4.4-4.3 5.4zm0 0c.4-1.9 2.1-7.9 4.9-6.1 2.4 2.3-3.1 5.4-4.9 6.1z" class="st0"/><path d="M74.1 42c4.6-.7 9.3-.7 13.9 0-4.6.7-9.3.7-13.9 0zM37.3 14c13.6-.7 27.1-.7 40.7 0-13.5.7-27.1.7-40.7 0zM18.8 54.8c5.1 5.9 11.2 6.5 17.4 1.8.8-.6 1.5-1.2 2.3-1.8-.6.7-1.3 1.4-2 2.2-5.8 5.6-13.7 4.9-17.7-2.2z" class="st0"/><path d="M38.2 54.8c5.1 5.9 11.2 6.5 17.4 1.8.8-.6 1.5-1.2 2.3-1.8-.6.7-1.3 1.4-2 2.2-5.7 5.6-13.6 4.9-17.7-2.2z" class="st0"/><path d="M57.7 54.8c5.2 5.9 11.2 6.5 17.4 1.8.8-.6 1.5-1.2 2.3-1.8-.6.7-1.3 1.4-2 2.2-5.8 5.6-13.6 4.9-17.7-2.2z" class="st0"/><path d="M77.2 54.8c5.2 5.9 11.2 6.5 17.4 1.8.8-.6 1.5-1.2 2.3-1.8-.6.7-1.3 1.4-2 2.2-5.8 5.6-13.7 4.9-17.7-2.2zM18.8 58.9c5.1 5.9 11.2 6.5 17.4 1.8.8-.6 1.5-1.2 2.3-1.8-.6.7-1.3 1.4-2 2.2-5.7 5.6-13.6 4.9-17.7-2.2z" class="st0"/><path d="M38.2 58.9c5.1 5.9 11.2 6.5 17.4 1.8.8-.6 1.5-1.2 2.3-1.8-.6.7-1.3 1.4-2 2.2-5.7 5.6-13.6 4.9-17.7-2.2z" class="st0"/><path d="M57.7 58.9c5.2 5.9 11.2 6.5 17.4 1.8.8-.6 1.5-1.2 2.3-1.8-.6.7-1.3 1.4-2 2.2-5.7 5.6-13.6 4.9-17.7-2.2z" class="st0"/><path d="M77.2 58.9c5.2 5.9 11.2 6.5 17.4 1.8.8-.6 1.5-1.2 2.3-1.8-.6.7-1.3 1.4-2 2.2-5.7 5.6-13.6 4.9-17.7-2.2zM18.8 73.4c5.1 5.9 11.2 6.5 17.4 1.8.8-.6 1.5-1.2 2.3-1.8-.6.7-1.3 1.4-2 2.2-5.8 5.6-13.7 4.9-17.7-2.2z" class="st0"/><path d="M38.2 73.4c5.1 5.9 11.2 6.5 17.4 1.8.8-.6 1.5-1.2 2.3-1.8-.6.7-1.3 1.4-2 2.2-5.7 5.6-13.6 4.9-17.7-2.2z" class="st0"/><path d="M57.7 73.4c5.2 5.9 11.2 6.5 17.4 1.8.8-.6 1.5-1.2 2.3-1.8-.6.7-1.3 1.4-2 2.2-5.8 5.6-13.6 4.9-17.7-2.2z" class="st0"/><path d="M77.2 73.4c5.2 5.9 11.2 6.5 17.4 1.8.8-.6 1.5-1.2 2.3-1.8-.6.7-1.3 1.4-2 2.2-5.8 5.6-13.7 4.9-17.7-2.2zM18.8 77.5c5.1 5.9 11.2 6.5 17.4 1.8.8-.6 1.5-1.2 2.3-1.8-.6.7-1.3 1.4-2 2.2-5.8 5.5-13.7 4.8-17.7-2.2z" class="st0"/><path d="M38.2 77.5c5.1 5.9 11.2 6.5 17.4 1.8.8-.6 1.5-1.2 2.3-1.8-.6.7-1.3 1.4-2 2.2-5.7 5.5-13.6 4.8-17.7-2.2z" class="st0"/><path d="M57.7 77.5c5.2 5.9 11.2 6.5 17.4 1.8.8-.6 1.5-1.2 2.3-1.8-.6.7-1.3 1.4-2 2.2-5.8 5.5-13.6 4.8-17.7-2.2z" class="st0"/><path d="M77.2 77.5c5.2 5.9 11.2 6.5 17.4 1.8.8-.6 1.5-1.2 2.3-1.8-.6.7-1.3 1.4-2 2.2-5.8 5.5-13.7 4.8-17.7-2.2zM38.3 25.5c0 .7-.1 1.4-.4 2.1-.6 1-1.7.3-2-.6-1.5-3.1 2.3-6.6 2.4-1.5zm0 0c0-.7-.3-2.1-1.1-2-.6.3-.6 1.4-.6 2s0 1.8.6 2.1c.7-.1 1.1-1.4 1.1-2.1z" class="st0"/><path d="M35.1 25.9c.9.6 2.4 2.6.4 2.9-1.6.1-4.1-2.1-3.1-3.7 1-.6 2 .3 2.7.8zm0 0c-.5-.5-1.8-1.1-2.3-.5-.2.9 2.3 3 3.2 2.6.5-.5-.3-1.6-.9-2.1z" class="st0"/><path d="M33.4 28.6c.9-.1 2.2-.4 2.7.6.1 1.9-3.2 2.6-4.5 1.7-1.5-1.2.7-2.2 1.8-2.3zm0 0c-.7.1-2 .7-1.8 1.4.6.7 3.8.2 4-.7-.1-.7-1.5-.8-2.2-.7z" class="st0"/><path d="M34.4 31.6c.5-.7 1.1-2 2.2-1.7 1.6 1.2-.1 4.1-1.6 4.5-1.9.5-1.2-1.9-.6-2.8zm0 0c-.3.6-.8 2-.1 2.3.9 0 2.5-2.8 2-3.6-.6-.3-1.6.7-1.9 1.3z" class="st0"/><path d="M37.4 32.8c-.2-.9-.8-2.1.2-2.8 2-.6 3.7 4 1.8 4.8-1.2.2-1.7-1.1-2-2zm0 0c.2.6 1 1.8 1.7 1.5.6-.7-.5-3.7-1.4-3.9-.7.4-.6 1.8-.3 2.4z" class="st0"/><path d="M40.2 31.3c-.8-.4-2.1-.8-2-1.9.8-2 5.4-.3 4.8 1.8-.7.9-2 .4-2.8.1zm0 0c.9.5 3.5.1 1.7-1.1-.8-.5-2.4-1.2-3.2-.7-.4.8.8 1.6 1.5 1.8z" class="st0"/><path d="M40.8 28.2c-.8.4-2 1.1-2.8.3-1-1.9 3.3-4.3 4.4-2.5.4 1.1-.8 1.7-1.6 2.2zm0 0c.6-.3 1.6-1.3 1.2-2-.8-.5-3.6 1.1-3.6 2.1.5.7 1.8.3 2.4-.1z" class="st0"/><path d="M38.5 29.1c0 .9-.7 1.5-1.5 1.5s-1.5-.7-1.5-1.5.7-1.5 1.5-1.5 1.5.6 1.5 1.5zm0 0c0-.6-.5-1-1-1s-1 .5-1 1 .5 1 1 1 1-.5 1-1zM50.7 30.1c0 .7-.1 1.4-.4 2-.6 1-1.7.3-2-.6-1.4-3 2.3-6.5 2.4-1.4zm0 0c0-.7-.3-2.1-1.1-2.1-.6.3-.6 1.4-.6 2.1s0 1.8.6 2c.8 0 1.1-1.3 1.1-2z" class="st0"/><path d="M47.6 30.6c.7.6 1.7 1.5 1.2 2.5-1.5 1.6-5.2-1.6-3.9-3.3.9-.7 2 .2 2.7.8zm0 0c-.5-.4-1.8-1.1-2.3-.5-.2.9 2.3 3 3.1 2.6.6-.5-.3-1.7-.8-2.1z" class="st0"/><path d="M45.9 33.3c.9-.1 2.2-.4 2.7.6.3 2.1-4.6 3-5 .9.1-1.1 1.5-1.3 2.3-1.5zm0 0c-.7.1-2 .7-1.8 1.4.6.7 3.8.2 4-.7-.1-.8-1.6-.9-2.2-.7z" class="st0"/><path d="M46.9 36.3c.5-.8 1.2-2 2.2-1.7 1.6 1.2-.1 4.1-1.6 4.5-1.9.5-1.2-1.9-.6-2.8zm0 0c-.3.6-.8 2-.1 2.3.9 0 2.5-2.8 2-3.6-.6-.3-1.6.7-1.9 1.3z" class="st0"/><path d="M49.8 37.5c-.3-.9-.8-2.1.2-2.8 2-.6 3.7 4 1.8 4.8-1.2.1-1.6-1.2-2-2zm0 0c.2.7 1 1.8 1.7 1.5.6-.7-.5-3.7-1.4-3.9-.7.3-.5 1.7-.3 2.4z" class="st0"/><path d="M52.6 36c-.8-.3-2.1-.8-2-1.9.8-2 5.4-.3 4.8 1.8-.6.9-1.9.4-2.8.1zm0 0c.6.2 2.1.4 2.3-.3-.1-.9-3.2-2-3.9-1.4-.2.7 1 1.5 1.6 1.7z" class="st0"/><path d="M53.3 32.9c-.8.4-2 1.1-2.8.3-1-1.9 3.3-4.4 4.4-2.6.4 1.1-.9 1.8-1.6 2.3zm0 0c.6-.3 1.6-1.3 1.2-2-.8-.5-3.6 1.1-3.5 2.1.4.7 1.7.3 2.3-.1z" class="st0"/><path d="M50.9 33.7c0 .9-.7 1.5-1.5 1.5s-1.5-.7-1.5-1.5.7-1.5 1.5-1.5 1.5.7 1.5 1.5zm0 0c0-.6-.5-1-1-1s-1 .5-1 1 .5 1 1 1 1-.4 1-1zM88 48.8c.8-3.2 2.7-9.3 6.7-9.4 1.4 0 2.6 1.1 2.8 2.5-.4 3.3-6.7 5.8-9.5 6.9zm0 0c2-1.1 3.9-2.2 5.7-3.5 1.1-.9 2.7-1.9 2.9-3.4 0-.4-.3-.8-.6-1-3.7-2.6-6.8 5.3-8 7.9z" class="st0"/><path d="M96.9 26.8c-3.7 6.3-6.7 13-8.9 20 .9-7.5 4-14.4 8.9-20z" class="st0"/><path d="M91.3 39.1c-2.3-4.2-5.8-12.7.4-15.2.7-.2 1.4-.1 1.9.4 2.3 3-1 11.5-2.3 14.8zm0 0c.5-2.6 3.6-12.7 1.4-14.3-6.2.7-2.9 10.6-1.4 14.3zM96.6 27.1c.3-2.8 2.5-14.7 7-10 4.2 5-2.7 9.1-7 10zm0 0c2.8-1.4 6.8-3 7.4-6.5.1-1.3-.9-3.3-2.2-3.7-2.7.3-4.4 7.8-5.2 10.2z" class="st0"/><path d="M93.1 34.4c1.9-4.3 7-8.6 11.8-5.4 4 3.6-9.8 5.2-11.8 5.4zm0 0c1.1-.4 13.4-3 11.2-4.6-4.3-2.8-8.8 1.1-11.2 4.6zM17.6 87.7c-1.2-2.5-4.3-10.4-7.9-7.9-.4.2-.6.6-.6 1 .2 1.5 1.7 2.5 2.9 3.4 1.7 1.3 3.6 2.5 5.6 3.5zm0 0c-2.8-1.1-9.1-3.5-9.5-6.9.2-1.4 1.4-2.5 2.8-2.5 4 .1 5.9 6.3 6.7 9.4z" class="st0"/><path d="M8.7 65.8c4.9 5.6 8 12.6 8.9 20-2.2-7-5.2-13.7-8.9-20z" class="st0"/><path d="M14.3 78.1c1.4-3.9 4.6-12.1-.7-14.2-.5-.1-.9-.1-1.2.4-.7 1.8-.2 3.9.1 5.8.5 2.7 1.1 5.3 1.8 8zm0 0C13 74.8 9.7 66.2 12 63.3c.5-.4 1.3-.6 1.9-.3 6.2 2.4 2.7 10.9.4 15.1zM9 66.1c-.8-2.3-2.6-9.8-5.2-10.1-1.3.4-2.3 2.4-2.2 3.7.7 3.3 4.6 5 7.4 6.4zm0 0c-4.4-.9-11.2-4.9-7-10 4.5-4.8 6.7 7.1 7 10z" class="st0"/><path d="M12.5 73.3c-2.4-3.5-6.9-7.4-11.2-4.6-2.3 1.6 10 4.3 11.2 4.6zm0 0c-2-.1-15.8-1.8-11.8-5.4 4.7-3.1 9.8 1.1 11.8 5.4z" class="st0"/></g></g></svg>