<svg xmlns="http://www.w3.org/2000/svg" xml:space="preserve" id="Слой_1" x="0" y="0" style="enable-background:new 0 0 78.6 90.7" version="1.1" viewBox="0 0 78.6 90.7"><style>.st0{fill:#264f26}</style><g id="Слой_2_00000000205579610247459220000014417121750515978659_"><g id="Слой_1-2"><path d="M28.1 13.4c.2-1.7.7-3.3 1.4-4.8.7-1.6 2-2.8 3.6-3.4 1.6-.5 3.3-.6 5-.4l4.9.3 5 .2c1.7 0 3.3.2 4.9.6.8.2 1.6.7 2.2 1.3.6.6 1 1.4 1.3 2.2.4 1.6.6 3.3.4 5 0 .1-.1.2-.2.2s-.2-.1-.2-.2c0-1.6-.2-3.2-.7-4.7-.5-1.4-1.6-2.4-3-2.8-1.5-.3-3.1-.5-4.7-.5l-5-.2-5-.4c-1.5-.2-3.1-.1-4.6.3-1.4.5-2.6 1.5-3.2 2.9-.7 1.4-1.3 3-1.6 4.5 0 .1-.2.2-.3.2-.1 0-.2-.1-.2-.3z" class="st0"/><path d="M28.5 13.7c.3-.6.8-1 1.5-1.2.6-.2 1.2-.3 1.8-.4l3.6-.3c1.2-.1 2.4-.2 3.6-.2s2.4.1 3.6.1l7.1.5 3.6.2c.6 0 1.2.1 1.8.3.6.2 1.1.7 1.4 1.2 0 .1 0 .2-.1.3-.1 0-.2 0-.3-.1-.6-.9-1.8-1-2.9-1l-3.6-.1c-2.4-.1-4.8-.2-7.1-.3-1.2-.1-2.3-.2-3.5-.2s-2.3.2-3.5.1l-3.5.1c-1.1-.1-2.1.2-2.9 1-.1.1-.2.1-.4.1-.2.1-.2 0-.2-.1zM13.6 44.1c-.8-1.4-1.8-2.7-2.9-3.9-1-1.3-1.7-2.9-2.2-4.5-.5-1.6-.8-3.2-1.2-4.8-.2-.8-.2-1.7-.1-2.5s.4-1.6.8-2.4c.6-1.5 1.5-3 2.6-4.2 1.2-1.2 2.8-1.9 4.5-1.9 1.7 0 3.4.7 4.5 2 1.2 1.3 1.8 2.9 1.7 4.7 0 .1-.1.2-.2.2s-.2-.1-.2-.2c-.1-3.2-2.9-5.9-5.8-5.6-1.4.1-2.8.7-3.8 1.7-1 1.2-1.7 2.6-2.3 4-.3.6-.6 1.3-.7 2-.1.7-.1 1.5.1 2.2.3 1.5.7 3.2 1.1 4.7.4 1.5 1 3 1.9 4.3.9 1.3 2.1 2.6 2.7 4.2 0 .1 0 .3-.2.3-.1-.2-.2-.2-.3-.3zM62 23c1.7-2.7 4.9-4 8.1-3.4 1.5.3 2.9 1.1 4 2.3 1.1 1.1 1.8 2.5 2 4.1.5 3-.3 6.1-1.1 9s-1.8 5.9-4.2 8c-.1.1-.2.1-.3 0-.1-.1-.1-.2 0-.3 1-1.1 1.8-2.3 2.3-3.7.5-1.4 1-2.8 1.3-4.2.6-2.9 1.4-5.9.9-8.5-.2-1.3-.8-2.6-1.7-3.5-.9-1-2.1-1.7-3.4-2-2.8-.6-5.7.4-7.4 2.7-.1.1-.2.1-.3.1-.2-.2-.2-.4-.2-.6 0 .1 0 0 0 0z" class="st0"/><path d="M20.2 25.3c.1-2.1 1.3-4 3.1-5s3.7-1.5 5.8-1.6c4-.3 7.9-.4 11.8-.4s7.9 0 11.9.2c2 0 4 .3 5.9.6 2 .4 3.8 1.6 4.9 3.3.1.1 0 .2-.1.3-.1.1-.2 0-.3-.1-1.1-1.5-2.9-2.5-4.7-2.8-1.9-.3-3.8-.5-5.8-.4-3.9-.1-7.9-.2-11.8-.1s-7.9.1-11.8.3c-1.9 0-3.7.5-5.4 1.3-1.7.8-2.8 2.5-3 4.3 0 .1-.1.3-.2.3-.1.1-.2 0-.3-.2z" class="st0"/><path d="M19.5 20.9c0-3.3.1-6.5.5-9.7.2-1.6.4-3.2.7-4.8.2-1.7 1.1-3.2 2.5-4.2.7-.4 1.5-.7 2.3-.9.7-.3 1.5-.4 2.3-.6C29.4.4 31 .2 32.6.2c3.3-.2 6.6-.2 9.8-.1s6.5.2 9.7.6c1.6.1 3.3.3 4.9.7.8.2 1.5.7 2.1 1.2.6.6 1 1.3 1.3 2.1.5 1.6.9 3.1 1.2 4.8l.9 4.8c.5 3.2.9 6.4 1.1 9.7 0 .1-.1.2-.3.2-.1 0-.2-.1-.2-.2-.3-3.2-.8-6.4-1.4-9.6-.3-1.6-.6-3.2-1-4.8C60.4 8 60 6.5 59.5 5c-.4-1.3-1.5-2.4-2.9-2.8-1.5-.3-3.1-.5-4.7-.6-3.2-.3-6.4-.5-9.6-.5s-6.4-.1-9.6.1c-1.6.1-3.2.3-4.7.5-.8.1-1.5.3-2.3.5-.7.2-1.4.4-2.1.8-1.2.8-1.9 2.1-2.1 3.5-.3 1.5-.5 3.1-.7 4.7-.4 3.2-.7 6.4-.8 9.6 0 .1-.1.3-.3.3-.1 0-.2-.1-.2-.2zM7.9 28.4c.9.3 1.9.3 2.7 0 .9-.3 1.7-1 2.1-1.8.4-.9.5-1.9.3-2.8-.2-.9-.8-1.8-1.6-2.3-.1-.1-.1-.2-.1-.3.1-.1.2-.1.2-.1h.1c.5.2 1 .5 1.4 1 .4.4.6.9.8 1.5.8 2.3-.3 4.8-2.6 5.6-.1 0-.2.1-.3.1-.6.2-1.1.2-1.7.2-.6-.1-1.1-.3-1.6-.6h-.1c-.1-.1-.2-.2-.1-.3s.4-.3.5-.2zM71.8 20.6c-.7.7-1.1 1.6-1.3 2.5-.2.9 0 1.9.7 2.7.7.7 1.5 1.2 2.4 1.5.4.2.9.3 1.4.4.4.1.9 0 1.2-.3.1-.1.2-.1.3 0 .1.1.1.2 0 .3v.1c-.4.5-1 .7-1.6.7-.6 0-1.1-.1-1.7-.3-1.1-.3-2.1-.9-2.8-1.7-.4-.5-.7-1.1-.9-1.7-.1-.6-.1-1.2 0-1.8.3-1.1 1-2 1.9-2.7h.1c.1-.1.3-.1.4 0 0 .1 0 .2-.1.3zM10.6 43.6c10 .3 20-.6 30-.9s20.1 0 30.1.3c.1 0 .2.1.2.2s-.1.2-.2.2l-7.5.1h-7.5c-5 0-10 0-15 .2l-15 .6c-2.5.1-5 .1-7.5.1s-5-.2-7.5-.3c-.1 0-.3-.1-.3-.3-.1 0 0-.2.2-.2zM12.5 49.8c9.6-.9 19.2-1.4 28.9-1.5 9.6-.2 19.3-.1 28.9.2.1 0 .2.1.2.2s-.1.2-.2.2l-14.5.1c-4.8.1-9.6.1-14.4.3s-9.6.3-14.4.4l-14.4.6c-.1 0-.3-.1-.3-.2 0-.2.1-.3.2-.3z" class="st0"/><path d="M71.9 43c.4-.1.8-.1 1.2 0 .4.1.7.6.7 1-.2.7-.5 1.4-.9 2-.3.6-.7 1.2-1.1 1.8-.4.6-.9 1.2-1.6 1.5-.1 0-.2 0-.3-.1V49l.1-.1c.2-.2.4-.5.6-.8.2-.3.3-.6.5-.9l.9-1.8.5-.9c.2-.3.3-.6.4-.7s.2 0 .1-.2-.5-.2-.8-.3h-.1c-.1 0-.2-.2-.2-.3-.2.1-.1 0 0 0zM10.9 44.2c-.1-.1-.4-.1-.6 0-.2.2-.3.4-.3.7.1.6.3 1.1.6 1.6.6 1.1 1.3 2.1 2.1 3 .1.1.1.2 0 .3H12.4c-.3-.2-.6-.3-.8-.5-.2-.2-.5-.4-.7-.7-.4-.4-.8-.9-1.1-1.5-.1-.3-.3-.5-.4-.9-.2-.4-.3-.8-.2-1.2 0-.5.3-1 .7-1.3.2-.1.5-.2.7-.2.3 0 .5.1.7.3l.1.1c.1.1 0 .3-.1.3-.2.1-.3.1-.4 0zM18.9 43.7c-.1.9 0 1.8 0 2.7s.1 1.8.3 2.7c0 .1 0 .2-.1.2s-.1 0-.2-.1l-.1-.1c-.1-.2-.3-.4-.4-.6l-.2-.7c-.1-.4-.2-.9-.3-1.3 0-.5 0-.9.1-1.4l.1-.7c.1-.2.2-.5.3-.7l.1-.2c.1-.1.2-.1.3-.1 0 .1.1.2.1.3zM65 43.2c0 .8.1 1.6.1 2.3s.1 1.5.1 2.3c0 .1-.1.2-.1.2h-.2l-.1-.1c-.2-.2-.2-.4-.3-.6l-.2-.6c-.3-.7-.3-1.5-.2-2.2l.1-.6c.1-.2.2-.4.2-.6l.1-.2c.1-.1.2-.1.3-.1.1.1.2.1.2.2zM27.8 44.8c4.5-.5 9.1-.9 13.7-1s9.1-.1 13.7 0c.1 0 .2.1.2.2s-.1.2-.2.2c-1.1.1-2.3.1-3.4.2l-3.4.1c-2.3.1-4.5.1-6.8.3s-4.6.2-6.9.3l-3.4.1c-1.1 0-2.3.1-3.4.1-.1 0-.3-.1-.3-.3l.2-.2z" class="st0"/><path d="M29.3 44.2c-.4 1.4-.4 2.8-.1 4.2 0 .1 0 .2-.1.2h-.2l-.1-.1c-.1-.2-.3-.3-.4-.5l-.2-.5c-.3-.7-.3-1.5 0-2.2.1-.2.1-.4.2-.5.1-.2.2-.3.4-.5l.2-.3c.1-.1.2-.1.3 0 .1.1.1.2 0 .2zM56.2 43.8c-.1.6-.1 1.3-.2 1.9s0 1.3 0 1.9c0 .1-.1.2-.2.2s-.1 0-.1-.1l-.1-.2c-.1-.2-.2-.3-.3-.5l-.2-.5c-.2-.6-.2-1.2.1-1.8l.2-.5c.1-.2.2-.3.3-.5l.2-.2c.1-.1.2-.1.3 0v.3z" class="st0"/><path d="M27.8 47.5c5.5-.6 11.1-.8 16.6-.5 5.5.2 11.1 0 16.6-.6.1 0 .2.1.2.2s-.1.2-.2.2c-1.4.3-2.8.5-4.1.7s-2.8.3-4.2.3c-2.7.2-5.5.1-8.3.2s-5.5-.1-8.3-.1H32l-2 .1c-.7 0-1.4.1-2.1.1-.1 0-.3-.1-.3-.3 0-.1.1-.3.3-.3h-.1zM16.2 49.1c.3 1.8.6 3.6 1 5.5l.5 2.7c0 .2.1.4.2.6.2.1.4.2.6.1l1.4-.2 2.8-.3c.2 0 .5 0 .6-.1s.1-.3.1-.6l.1-1.4c.1-1.8.2-3.7.3-5.6 0-.1.1-.2.2-.2s.2.1.2.2c.1.9.1 1.9.2 2.8v4.6c0 .3-.2.6-.4.8-.2.2-.5.3-.8.3h-.4l-2.8.4-1.5.3h-.6c-.3 0-.6-.2-.8-.4-.3-.3-.4-.7-.5-1.1-.2-.9-.4-1.8-.5-2.8l-.2-2.7c-.1-.9-.2-1.9-.2-2.8 0-.1.1-.3.3-.3l.2.2zM61.2 48.7c.2 2.7.5 5.3.7 8l-.2-.1c1.1-.1 2.2-.1 3.2.2.5.1 1 .1 1.6-.1.2-.1.4-.2.6-.4.1-.2.2-.5.2-.7l.4-3.2.3-2.9c-.1 0-.2-.1-.2-.3 0-.1.1-.2.2-.2.2 0 .3.1.4.2.1.1.1.2.1.3V52.4c-.1 1.1-.1 2.2-.2 3.2v.4c0 .3-.1.5-.3.8-.3.3-.7.6-1.1.7-.6.2-1.3.3-2 .2-.9-.2-1.9-.3-2.8-.3-.5.2-1 0-1.2-.5V56.6l-.2-2-.1-2c-.1-1.3 0-2.7 0-4v-.1c0-.1.1-.3.3-.3.2.3.3.4.3.5zM30.2 37.3c-.4.5-.7 1.1-1.1 1.6s-.5 1.2 0 1.5c.5.3 1.1.2 1.5-.2.4-.5.7-1 .9-1.6 0-.1.1-.2.2-.1.1 0 .1.1.1.2-.1.5-.1 1 0 1.5.2.5.7.7 1.2.5.5-.1.8-.6.8-1.1 0-.5-.1-1-.5-1.4V38h.1c.5 0 1-.2 1.3-.6.4-.4.4-.9.2-1.4-.2-.5-.7-.8-1.2-.8-.5-.1-1.1.3-.9.7l-.2-.1c.3-.4.4-1 .1-1.5-.2-.5-.6-1-1.1-1.2-.4-.2-.9 0-1.1.5v.2c-.1.6 0 1.1.2 1.6l-.4.1s-.1-.1-.2 0-.1.1-.1.2v1c0 .6.3 1.2.9 1.5.1 0 .2.2.1.3 0 .1-.2.2-.3.1-.4-.1-.7-.4-.9-.7-.2-.3-.3-.7-.4-1.1-.1-.4-.1-.8-.1-1.1 0-.4.2-.7.5-.8.2-.1.4-.1.6-.1.3.1.5.3.6.6 0 .3-.2.6-.5.7-.3 0-.6-.1-.6-.4-.3-.7-.4-1.4-.2-2.1.1-.5.4-.8.8-1.1.4-.3 1-.3 1.5-.1.7.3 1.3.9 1.6 1.7.2.4.3.8.3 1.2 0 .5-.2 1.1-.6 1.4-.4.3-.9.3-1.2-.1-.1-.1-.1-.2-.2-.3-.1-.4-.1-.8.1-1.1.1-.2.3-.5.5-.6.4-.3.9-.4 1.4-.4.8.1 1.6.6 2 1.3.2.4.3.9.3 1.3-.1.4-.2.8-.5 1.2-.5.7-1.4 1.1-2.3 1l.8-1.5c.5.6.7 1.4.7 2.2 0 .4-.2.9-.5 1.2-.3.3-.7.6-1.1.7-.4.2-.9.2-1.4 0-.4-.2-.8-.6-1-1-.2-.7-.3-1.4-.1-2.1l1.5.4c-.2.8-.6 1.4-1.2 2-.7.7-1.8.8-2.6.2-.4-.3-.6-.9-.5-1.4.1-.4.2-.8.5-1.1.4-.6.8-1 1.2-1.6.1-.1.3-.1.4 0 .1.1.1.2.1.3z" class="st0"/><path d="M34.4 37.6c.2-.7 1-1.2 1.7-.9.1 0 .3.1.4.2.6.5.6 1.3.2 1.9l-.3.3h-.2v-.2c.3-.4.9-.7 1.4-.5.5.1 1 .5 1.1 1.1.1.5-.1 1.1-.5 1.4-.4.4-.8.6-1.3.7-1 .2-2.1 0-2.9-.6-.9-.7-1.2-1.8-.7-2.8.1-.1.2-.1.3-.1.1 0 .1.1.1.2v.1c-.2.8.2 1.6.9 2 .7.3 1.5.4 2.2.2.3-.1.6-.2.8-.4.1-.1.2-.3.2-.5-.1-.2-.3-.4-.5-.3-.1 0-.1 0-.2.1L36 38.3s.2-.1.2-.2 0-.3-.1-.4c-.1-.1-.3-.2-.5-.2-.3 0-.5.2-.6.4v.1c-.1.1-.2.2-.3.1-.2-.3-.3-.4-.3-.5zM29.6 35.8c.2-.7.2-1.5-.1-2.2-.2-.7-.8-1.2-1.5-1.4-.3-.1-.7 0-.8.3-.1.3-.2.7-.2 1.1 0 .8.3 1.5.8 2.1l-.2.2c-.3-.4-.7-.8-1.1-1-.4-.2-1-.2-1.4 0-.5.2-.7.7-.6 1.1.1.5.6.8 1 .7v.2c-.6 0-.9.8-.7 1.3.2.6.7 1 1.2 1.1.6.1 1.2 0 1.7-.4s1-.8 1.3-1.3c.1-.1.2-.1.3 0 .1.1.1.2 0 .3-.3.6-.8 1.1-1.3 1.6-.6.5-1.4.7-2.2.6-.9-.1-1.7-.8-2-1.7-.2-.5-.1-1 .1-1.5.3-.6.8-1 1.5-1 .5 0 .8.4.9.8 0 .3-.2.7-.5.8-.5.2-1.1.1-1.5-.2-.4-.3-.7-.7-.8-1.1-.1-.5-.1-1 .2-1.5.2-.4.6-.7 1-.9.4-.2.8-.3 1.2-.3.4 0 .8.1 1.1.3.6.3 1.1.8 1.5 1.3.3.4.2 1-.2 1.2-.4.2-.9.2-1.2-.2-.6-.8-1-1.7-1-2.7 0-.5.1-1 .3-1.5.2-.4.5-.7.9-.8.3-.1.7-.1 1-.1 1 .2 1.8 1 2.1 2 .2.8.2 1.7-.1 2.6 0 .1-.2.2-.3.2-.3.2-.4.1-.4 0z" class="st0"/><path d="M26.5 35.1c-.5-1.2-.8-2.4-.9-3.7-.1-.6-.3-1.2-.5-1.7-.3-.5-.7-1-1.1-1.3-.2-.2-.4.1-.4.4v.9c.1.6.2 1.2.5 1.7.5 1.1 1.4 2 2.6 2.4.1 0 .2.2.1.3 0 .1-.1.2-.2.1h-.1c-.7-.1-1.3-.4-1.8-.8s-1-1-1.4-1.6c-.4-.6-.6-1.3-.7-2v-1.1c0-.4.1-.7.4-1 .2-.3.6-.4.9-.4.2 0 .5.1.7.2.7.4 1.2 1 1.5 1.7.3.7.5 1.4.5 2.1l.1 1.8c0 .6.1 1.1.2 1.7v.1c.1.1 0 .3-.1.3s-.2 0-.3-.1z" class="st0"/><path d="M26.7 35.1c-1.2-1.6-2.5-3.2-3.8-4.8L21 27.9c-.3-.4-.6-.8-1-1.1-.2-.2-.4-.3-.6-.4-.1-.1-.1-.1-.2 0 0 .1-.1.2-.1.3 0 .5.2.9.5 1.3s.5.8.9 1.2c.6.8 1.3 1.6 2 2.3.7.7 1.5 1.4 2.3 1.9.7.6 1.7 1 2.6 1.1.1 0 .2.1.2.2s-.1.2-.2.2c-1.1 0-2.2-.3-3.1-1-.9-.6-1.7-1.2-2.5-1.9s-1.5-1.5-2.1-2.3c-.3-.4-.6-.9-.9-1.3-.4-.5-.7-1.2-.7-1.9v-.4c0-.2.1-.3.2-.5.2-.3.5-.5.9-.5.2 0 .4 0 .6.1.3.1.6.3.9.5.4.4.8.8 1.1 1.3.6.8 1.3 1.6 1.8 2.4l1.8 2.5c.5.9 1.1 1.7 1.6 2.6.1.1 0 .3-.1.4 0 .2-.1.2-.2.2zM53.3 37c.4.6.7 1.1 1.1 1.7.2.3.3.6.4 1 0 .4-.1.8-.5 1.1-.7.4-1.5.3-2.1-.2-.5-.5-.8-1.1-.9-1.8l.3-.1c.1.6.1 1.1-.1 1.7-.1.3-.4.5-.7.6-.3.1-.6.1-.9 0-.6-.2-1-.7-1-1.3 0-.6.1-1.2.5-1.6l.1.2c-.6 0-1.2-.2-1.5-.7-.4-.5-.4-1.1-.2-1.7.3-.5.8-.9 1.4-1 .3 0 .6 0 .9.2.3.2.4.5.4.8 0 .1-.1.1-.2.1-.5-.5-.5-1.2-.2-1.8.2-.6.7-1.1 1.2-1.4.3-.1.7-.1 1 0 .3.2.5.5.6.8.1.6.1 1.3-.2 1.9 0 .1-.1.2-.2.1-.1 0-.1-.1-.1-.2.1-.3.3-.4.6-.4h.1c.2.1.4.3.4.6v1.1c0 .8-.4 1.5-1.1 1.9-.1 0-.2 0-.3-.1 0-.1 0-.2.1-.3.5-.3.7-.9.7-1.5 0-.3 0-.6-.1-.9 0-.1-.1-.1 0 0h.1s.2-.1.2-.3l-1.1-.4c.2-.4.2-.9.1-1.4 0-.1-.1-.2-.2-.3h-.2c-.3.3-.6.6-.7 1-.1.2-.1.3-.1.5 0 .1 0 .1.1.2l-1.4.4v.3h-.2c-.2 0-.4.2-.6.4-.1.2 0 .4.1.5.1.2.3.3.5.3.5-.1.9.3 1 .8 0 .3-.1.5-.2.7-.2.2-.3.5-.3.8 0 .2.1.4.3.5.2 0 .2.1.3-.1.1-.4.1-.7.1-1.1v-.1c-.1-.4.2-.8.7-.9.4 0 .8.2.9.6.1.5.3 1 .6 1.5.2.3.7.4 1 .2.1-.1.2-.2.2-.3 0-.3-.1-.5-.2-.8l-.9-1.7c-.1-.1 0-.3.1-.3.1-.1.3 0 .4.1-.1 0-.1.1-.1.1z" class="st0"/><path d="M48.1 37.7c-.2-.5-.8-.8-1.3-.6h-.1c-.4.3-.5 1-.2 1.4 0 .1.1.1.2.2l-.2.2c-.3-.4-.7-.5-1.1-.5-.4.1-.8.4-.9.9-.1.5.1.9.5 1.2.3.3.8.5 1.2.6.9.2 1.9 0 2.7-.6.7-.6.9-1.6.5-2.4-.1-.1 0-.2.1-.3.1-.1.2-.1.3 0 .7 1 .5 2.4-.4 3.2-.9.8-2.1 1.2-3.3 1-.7-.1-1.3-.4-1.8-.9-.6-.6-.8-1.4-.7-2.2.2-.8.9-1.5 1.7-1.6.8-.1 1.7.2 2.1.9v.1c.2.4.1.9-.2 1.1-.3.2-.6.2-.9 0-.5-.3-.7-.9-.8-1.5 0-.6.3-1.1.8-1.5.5-.3 1.1-.3 1.5 0 .4.2.7.6.8 1.1v.1c0 .1-.1.3-.2.3-.1.1-.3 0-.3-.2zM52.9 35.9c-.2-.8-.1-1.7.2-2.4.3-.8 1-1.4 1.9-1.6.2 0 .4 0 .7.1.2.1.4.3.5.5.1.4.2.8.2 1.2 0 .8-.3 1.6-.9 2.2h-.2v-.2c.3-.4.7-.8 1.2-1.1.5-.2 1.1-.2 1.6 0 .6.2.9.8.8 1.4-.1.6-.7 1-1.3.9-.1 0-.1-.1-.1-.2l.1-.1c.4 0 .7.3.9.6.1.3.2.7.1 1-.2.7-.8 1.2-1.5 1.3-.7.1-1.4 0-2-.4-.6-.4-1.1-.8-1.5-1.3-.1-.1-.1-.2 0-.3.1-.1.2-.1.3 0 .4.4.9.8 1.5 1.1.5.2 1 .3 1.5.2.4-.1.7-.4.7-.8.1-.3-.3-.6-.1-.4l.4-1.6h-.1s.1-.1.1-.2c0 0 0-.1-.2-.2s-.5-.1-.7 0c-.3.2-.6.4-.8.7l-1.4-1.1c.4-.4.6-1 .7-1.6v-.8c0-.1.1 0 .1 0h-.2c-.6.1-1.1.5-1.3 1-.3.6-.4 1.3-.4 2 0 .1-.1.3-.2.3-.4.1-.6-.1-.6-.2z" class="st0"/><path d="M56.1 34.8c.6-1.1.9-2.2 1-3.5.1-.6.3-1.2.6-1.8.3-.6.8-1 1.3-1.4.2-.1.4-.1.6 0 .1.1.2.3.2.5v1c-.1.6-.2 1.3-.5 1.8-.6 1.2-1.5 2.1-2.6 2.7-.1.1-.2 0-.3-.1-.1-.1 0-.2.1-.3h.1c.5-.4.9-.8 1.2-1.3.3-.4.6-.9.8-1.4.2-.5.3-1 .3-1.5v-.8c0-.1-.1-.1.1.1.1.1.3.2.5.2h.3c-.4.3-.7.6-.9 1-.3.5-.5.9-.6 1.4-.2.6-.3 1.2-.5 1.8-.2.6-.5 1.2-1 1.8-.1.1-.3.1-.4 0-.3 0-.4-.1-.3-.2z" class="st0"/><path d="M56 34.8c1.3-1.5 2.6-3.1 3.9-4.7l1.9-2.4c.3-.4.7-.8 1-1.1.2-.2.4-.3.7-.4.1 0 .2-.1.2 0 .1 0 .2.1.2.1.1.1.1.3.1.4 0 .5-.2 1-.5 1.5-.3.4-.5.9-.8 1.3a21.976 21.976 0 0 1-4.3 4.3c-.8.7-1.8 1.2-2.8 1.3-.1 0-.2-.1-.2-.2s.1-.2.2-.2c.9-.2 1.8-.7 2.4-1.5.7-.6 1.5-1.3 2.1-2 .6-.8 1.3-1.5 1.8-2.3.3-.4.5-.8.8-1.2.2-.3.3-.6.4-.9v.1c.1.2.4.3.6.4.3 0 .3-.1.2 0-.2.1-.3.1-.4.2-.3.3-.6.6-.9 1-.7.8-1.3 1.6-2 2.3L58.5 33c-.7.7-1.4 1.5-2.2 2.2-.1.1-.3.1-.4 0 0-.1 0-.3.1-.4zM3.9 67.7c-.5 1.9-1 3.8-1.6 5.7S1 77.2.4 79c0 .1-.2.2-.3.1 0 .1-.1 0-.1-.1v-.1c0-.5.2-1 .2-1.5L.6 76c.2-1 .5-1.9.7-2.8s.6-1.9.9-2.8l.6-1.4c.2-.5.4-.9.6-1.4v-.1c.1-.1.2-.2.3-.1.2.1.2.2.2.3z" class="st0"/><path d="M2.4 69.8c.4-.6 1.1-1.1 1.8-1.4.7-.2 1.5-.2 2.2 0 .7.1 1.4.5 1.9 1.1.5.6.6 1.5.3 2.2 0 .1-.2.1-.3.1-.1 0-.1-.1-.1-.2v-.1c0-.3-.1-.6-.2-.9-.1-.3-.2-.5-.5-.7-.4-.3-.9-.5-1.4-.6-.5-.1-1.1-.2-1.6-.1-.3 0-.5.1-.8.3-.3.1-.6.3-.9.5l-.1.1c-.1.1-.3 0-.3-.1-.1 0-.1-.1 0-.2z" class="st0"/><path d="M8.7 72.1c-.5 1.4-1 2.8-1.6 4.2S5.9 79 5.3 80.4c0 .1-.2.2-.3.1-.1 0-.1-.1-.1-.2v-.1c0-.4.1-.8.2-1.1l.3-1.1c.2-.7.5-1.4.7-2.1.3-.7.6-1.3.9-2l.5-1c.2-.3.4-.6.6-1l.1-.1c.1-.1.2-.1.3 0 .2 0 .2.1.2.3z" class="st0"/><path d="M.9 78.6c.2 1 1 1.8 2 2 1 .2 2-.2 2.6-1 .1-.1.2-.1.3 0 .1 0 .1.1.1.2v.2c-.1.3-.2.6-.4.8-.2.2-.5.4-.8.6-.6.3-1.3.5-2 .3-.7-.1-1.3-.5-1.7-1-.2-.3-.4-.5-.5-.8-.1-.3-.1-.6-.1-.9v-.2c0-.1.1-.2.3-.2h.2zM15.7 69.2c-.4 1-.7 2-1.1 2.9s-.6 2-.8 3c0 .1-.1.2-.2.2s-.1-.1-.1-.1V75c-.1-.3-.1-.6-.1-.8v-.8c.1-1.1.4-2.1.9-3l.4-.7c.2-.2.4-.4.6-.7l.1-.1c.1-.1.2-.1.3 0v.3z" class="st0"/><path d="M15 69.3c.8-.5 1.7-.9 2.6-1.1.5-.1 1 0 1.4.2.5.2.8.6 1 1.1 0 .1 0 .2-.1.2h-.2l-.1-.1c-.2-.1-.3-.2-.5-.3-.2-.1-.3-.1-.5-.1h-.9c-.3 0-.6.1-1 .2-.2 0-.4.1-.6.2-.2 0-.5.1-.7.1h-.2c-.1 0-.2-.1-.2-.2-.1-.1-.1-.2 0-.2z" class="st0"/><path d="M19.9 70c-.1.9-.1 1.8-.3 2.7s-.3 1.8-.4 2.7c0 .1-.1.2-.2.2s-.1 0-.1-.1l-.1-.2c-.1-.2-.1-.5-.2-.7l-.1-.7c-.1-.9 0-1.7.3-2.6l.2-.7c.1-.2.2-.5.3-.7l.1-.2c.1-.1.2-.1.3-.1.2.2.2.3.2.4z" class="st0"/><path d="M13.7 75.2c.1.4.7.7 1.3.8.6.1 1.2.2 1.7.2.6 0 1.1-.2 1.6-.5s.8-.7 1-1.3c0-.1.1-.2.2-.1.1 0 .1.1.1.2v.1c0 .4-.1.7-.2 1.1-.2.3-.4.6-.7.8-.6.5-1.3.7-2 .8-.7 0-1.4-.1-2-.3-.4-.1-.7-.3-1-.5-.3-.2-.5-.6-.6-1v-.1c0-.1.1-.2.2-.2.3-.2.4-.1.4 0zM29.2 61.3c1.9-.4 3.7.8 4.1 2.6v.2c0 .1-.1.2-.2.2h-.2l-.1-.1c-.1-.2-.3-.3-.5-.5-.1-.1-.2-.3-.4-.4-.2-.2-.5-.4-.8-.6-.3-.2-.5-.3-.8-.5-.1-.1-.3-.2-.5-.2-.2-.1-.4-.2-.6-.2l-.2-.1c-.1 0-.2-.2-.1-.3.2-.1.2-.1.3-.1z" class="st0"/><path d="M29.2 61.9c-.5.5-.8 1-1.3 1.5l-1.4 1.4c-.1.1-.2.1-.2 0l-.1-.1v-.2c0-.2.1-.4.1-.6l.2-.5c.1-.3.3-.5.5-.8.2-.2.4-.4.7-.6l.4-.2c.2-.1.4-.1.5-.2h.4c.1 0 .2 0 .2.1.1.1.1.2 0 .2z" class="st0"/><path d="M26.3 65c-.1.4-.1.8 0 1.2.2.4.4.8.7 1.1.3.3.6.6 1 .8.3.1.7.1 1-.1.1-.1.2-.1.3 0v.2l-.1.1c-.2.3-.4.4-.7.5-.3.1-.6.1-.9 0-.6-.2-1.1-.5-1.4-1-.3-.4-.5-.9-.6-1.4v-.9c.1-.3.2-.6.4-.8l.1-.1c.1-.1.2-.1.3 0 0 .2 0 .3-.1.4z" class="st0"/><path d="M29.2 68c.8-.6 1.4-1.3 2.1-2 .7-.7 1.3-1.4 1.9-2.2.1-.1.2-.1.3 0 .1 0 .1.1.1.2v.2c-.1.3-.1.5-.2.8l-.4.6c-.5.8-1.2 1.6-2 2.1l-.6.4c-.2.1-.5.2-.7.3h-.2c-.1 0-.2 0-.3-.2V68zM35.6 73.3c.8-1.7 1.4-3.4 2.1-5.1s1.3-3.4 1.8-5.2c0-.1.1-.2.3-.1.1 0 .1.1.2.2v.1c0 .5-.1.9-.2 1.4l-.3 1.4c-.2.9-.5 1.8-.8 2.7-.3.9-.7 1.7-1.1 2.5l-.7 1.2c-.3.4-.5.8-.8 1.2H36c-.1.1-.2.1-.3 0-.1-.1-.2-.2-.1-.3z" class="st0"/><path d="M39.5 63.3c.6-.5 1.4-.9 2.2-1.1.8-.2 1.7-.1 2.4.3.8.3 1.4 1 1.7 1.8.3.8.2 1.7-.2 2.4-.1.1-.2.1-.3.1-.1 0-.1-.1-.1-.2v-.1c.1-.3.1-.7 0-1 0-.3-.1-.6-.3-.9-.3-.5-.7-.9-1.2-1.1-.8-.4-1.8-.4-2.7-.2-.4.1-.7.2-1.1.4h-.1c-.1 0-.3 0-.3-.1v-.3zM36.2 74c.8 1.9 3 2.7 4.9 1.9.1 0 .1 0 .2-.1s.2-.1.3 0c.1.1.1.2 0 .3l-.1.1c-.2.2-.4.4-.7.6l-.9.3c-.6.1-1.2.1-1.8-.1-.6-.2-1.1-.5-1.5-1-.2-.2-.4-.5-.5-.8-.1-.3-.2-.6-.2-.9v-.2c0-.1.1-.2.2-.2 0 0 0 .1.1.1z" class="st0"/><path d="M41.3 75.1c.8-1.6 1.6-3.2 2.5-4.8.8-1.6 1.4-3.3 1.7-5 0-.1.1-.2.2-.2s.2.1.2.2v1.5c-.1.5-.1.9-.2 1.4-.2.9-.5 1.8-.9 2.6s-.8 1.6-1.3 2.3l-.8 1.1c-.3.3-.5.7-.8 1.1l-.1.1c-.1.1-.3.1-.3 0-.3-.1-.3-.3-.2-.3zM29.9 80.3c.8-1.2 1.9-2.1 3.3-2.5.7-.3 1.5-.1 2 .4s.8 1.2.9 1.9c0 .1-.1.2-.2.2s-.2 0-.2-.1l-.1-.1c-.2-.3-.3-.6-.5-.8-.1-.2-.3-.4-.5-.6-.3-.2-.7-.2-1.1 0-.5.2-1 .4-1.5.7-.3.1-.5.3-.8.5-.3.2-.5.4-.8.6l-.1.1c-.1.1-.3.1-.3 0-.1-.1-.1-.2-.1-.3z" class="st0"/><path d="M30.6 80.8c-.3 2.7-.3 5.3.1 8 0 .1-.1.2-.2.2s-.2 0-.2-.1v-.1c-.2-.3-.3-.7-.4-1l-.3-1c-.1-.7-.2-1.3-.2-2s0-1.3.2-2l.2-1c.1-.3.2-.7.4-1l.1-.1c.1-.1.2-.2.3-.1-.1 0-.1.1 0 .2zM35.8 80.8c.2 1.2.4 2.3.5 3.5l.3 3.6c0 .1-.1.2-.2.2s-.1 0-.2-.1l-.1-.1c-.2-.3-.2-.6-.4-.9l-.2-.9c-.1-.6-.2-1.1-.3-1.7-.1-.6-.1-1.1-.1-1.7v-.9c.1-.3.1-.6.2-.9v-.2c0-.1.2-.2.3-.2.1.1.2.2.2.3z" class="st0"/><path d="M30.7 88.8c.4.4.9.7 1.4.7.5.1 1.1.1 1.7-.1 1.1-.4 2-1 2.8-1.9.1-.1.2-.1.3 0 .1.1.1.1.1.2v.1c-.1.3-.3.6-.4.8-.2.3-.4.5-.6.7-.5.5-1.1.8-1.7 1-.7.2-1.4.2-2.1 0-.3-.1-.7-.3-1-.5-.3-.2-.5-.5-.6-.8h-.3c0-.1 0-.3.1-.3s.2 0 .3.1zM42.6 86.7c.9-1.6 1.6-3.2 2.3-4.8s1.3-3.3 1.8-5.1c0-.1.1-.2.2-.1.1 0 .2.1.2.2v.1c0 .5-.1.9-.1 1.4l-.3 1.3c-.2.9-.5 1.7-.8 2.6-.3.8-.7 1.7-1.2 2.4l-.7 1.2c-.3.4-.6.7-.9 1.1H43c-.1.1-.3.1-.4 0v-.3z" class="st0"/><path d="M46.8 77.3c.3-.6.9-1 1.6-1 .6 0 1.2.2 1.8.5.6.3 1 .7 1.3 1.2.3.6.4 1.2.3 1.8 0 .1-.1.2-.2.1-.1 0-.1-.1-.1-.2v-.1c0-.3-.1-.5-.3-.7-.1-.2-.2-.4-.4-.5-.3-.3-.7-.5-1.1-.7-.4-.2-.8-.4-1.2-.5-.2-.1-.4-.1-.6 0-.2 0-.5.1-.6.2l-.2.1c-.1.1-.2 0-.3-.1v-.1zM51.5 80.3c-.8 1.4-1.5 2.9-2.1 4.4-.6 1.5-1.1 3.1-1.6 4.6 0 .1-.1.2-.2.2s-.1-.1-.2-.2v-.1c0-.4 0-.9.1-1.3l.2-1.2c.2-.8.4-1.6.7-2.4.3-.8.7-1.5 1.1-2.2l.7-1c.3-.3.5-.7.8-1l.1-.1c.1-.1.3-.1.3 0 .1.1.1.2.1.3z" class="st0"/><path d="M43.5 87.6c-.2.4-.1.9.3 1.2.4.3.9.6 1.3.7.5.1 1 .1 1.5-.1s.8-.6.9-1.1c0-.1.1-.2.2-.2s.2.1.2.2v.1c.1.3 0 .7-.2 1-.2.3-.5.6-.8.8-.6.4-1.4.5-2.1.3-.7-.2-1.3-.5-1.7-1-.3-.3-.5-.7-.5-1.1 0-.4.1-.8.4-1.1l.1-.1c.1-.1.2-.1.3 0 .2.1.1.3.1.4zM51.4 69.4c-.6-.5-1-1.3-1-2.1s.2-1.5.6-2.2c.4-.6.9-1.2 1.5-1.7s1.3-.8 2.1-1c.1 0 .2.1.2.2s0 .2-.1.2h-.1c-.3.2-.6.4-.8.6-.3.2-.5.4-.7.7-.4.5-.8 1-1.1 1.5-.3.5-.5 1-.6 1.5v.8c0 .3.2.6.3.9l.1.1c.1.1 0 .3-.1.3-.2.3-.2.3-.3.2z" class="st0"/><path d="M54.7 62.7c1.1.5 2.1 1.1 3.1 1.9.5.3 1 .6 1.5.8.5.2 1.1.3 1.7.3.1 0 .2.1.2.2s0 .2-.1.2l-.1.1c-.3.1-.7.2-1 .2-.3 0-.7 0-1-.1-.6-.2-1.2-.4-1.8-.8-.5-.3-.9-.7-1.3-1.1l-.6-.6-.6-.6-.1-.1c-.1-.1-.1-.2 0-.3 0-.1.1-.1.1-.1zM52.3 69.4c1.2.4 2.3.9 3.3 1.7 1 .7 2 1.2 3.2 1.4.1 0 .2.1.2.2s-.1.2-.1.2h-.1c-.3.1-.7.1-1 .1-.3 0-.7-.1-1-.2-.6-.2-1.1-.4-1.7-.7-.5-.3-1-.7-1.4-1-.2-.2-.4-.3-.7-.5-.2-.2-.5-.3-.7-.5l-.1-.1c-.1-.1-.1-.2 0-.3-.1-.2 0-.3.1-.3z" class="st0"/><path d="M58.8 72.4c.6-.1 1.1-.4 1.5-.9.4-.4.8-1 1-1.5.2-.6.4-1.2.4-1.8.1-.6-.2-1.1-.7-1.5-.1 0-.1-.2-.1-.3 0-.1.1-.1.2-.1h.1c.4.1.8.3 1 .7.2.4.3.7.4 1.2.1.7 0 1.5-.3 2.2-.3.7-.7 1.3-1.3 1.8-.3.2-.6.4-1 .6-.4.1-.7.2-1.1.2h-.1c-.1 0-.2-.1-.2-.3 0-.2 0-.2.2-.3zM67.6 67.3c-.3-.3-.5-.7-.4-1.1.1-.3.2-.6.4-.9.4-.6.8-1 1.4-1.4 1.1-.7 2.5-.9 3.8-.5.1 0 .2.1.1.2 0 .1-.1.1-.2.1h-.1c-.3 0-.6.1-.9.1-.3 0-.5.1-.8.2-.5.2-.9.4-1.4.7-.4.3-.8.6-1.1.9-.1.1-.2.2-.2.3-.1.1-.1.2-.2.3-.1.1-.2.3-.2.5l.1.2c0 .1-.1.2-.2.2 0 .2-.1.2-.1.2z" class="st0"/><path d="M72.9 63.3c.8.9 1.7 1.6 2.6 2.5s1.8 1.6 2.8 2.3c.1.1.1.2 0 .3-.1.1-.1.1-.2.1H78l-.9-.3-.8-.4c-.5-.3-1-.6-1.5-1s-.9-.8-1.2-1.3l-.6-1c-.2-.3-.3-.6-.5-.8v-.1c0-.1 0-.3.1-.3.2-.1.2-.1.3 0zM68.2 67.4c.9.9 1.8 1.7 2.8 2.6s1.9 1.6 2.9 2.4c.1.1.1.2 0 .3 0 .1-.1.1-.2.1h-.1l-.9-.3-.8-.5c-.5-.3-1.1-.7-1.5-1.1-.5-.4-.9-.9-1.3-1.3l-.6-.8c-.2-.3-.3-.6-.5-.9l-.1-.1c0-.1 0-.3.1-.3-.1-.2.1-.2.2-.1z" class="st0"/><path d="M73.3 71.7c1.2.3 2.5-.1 3.4-.9.5-.4.8-1 1-1.6.1-.3.2-.6.2-.9 0-.3-.2-.6-.3-.5-.1 0-.2-.1-.2-.2s0-.2.2-.2h.1c.3 0 .6.1.7.3l.3.6c.1.4.1.8 0 1.2-.2.8-.5 1.5-1.1 2-.6.5-1.2.9-2 1-.4.1-.7.1-1.1 0-.4-.1-.7-.2-1-.4l-.1-.1c-.1-.1-.1-.2-.1-.3-.1.1 0 0 0 0zM67 81.8c0-.7.3-1.4.8-1.8.5-.4 1-.7 1.6-.9 1.2-.4 2.4-.5 3.6-.1.1 0 .2.1.1.2 0 .1-.1.1-.2.1h-.1c-.3 0-.6 0-.9.1-.3 0-.5.1-.8.1-.5.1-1 .3-1.4.4-.5.2-.9.4-1.3.6-.2.1-.4.3-.6.4-.2.1-.3.3-.4.6l-.1.2c-.1.1-.2.2-.3.1 0 .1 0 .1 0 0z" class="st0"/><path d="M67.2 81.9c.5 1.4 1.1 2.7 1.8 4 .7 1.3 1.5 2.5 2.4 3.7.1.1.1.2 0 .3h-.2l-.2-.1c-.3-.2-.6-.5-.9-.7l-.8-.8c-.5-.6-.9-1.2-1.3-1.8-.4-.7-.7-1.3-.9-2.1l-.3-1.1c-.1-.4-.1-.8-.1-1.2V82c0-.1.1-.2.2-.2.1-.1.2 0 .3.1zM73.3 79.2c.6 1.2 1.3 2.2 2 3.4s1.3 2.3 1.9 3.4c.1.1 0 .2-.1.3-.1.1-.2.1-.2 0l-.1-.1c-.3-.2-.5-.5-.8-.7l-.6-.8c-.4-.5-.8-1-1.1-1.6-.3-.6-.6-1.1-.9-1.7l-.4-.9c-.1-.3-.2-.6-.3-1v-.1c0-.1.1-.3.2-.3.3 0 .4.1.4.1z" class="st0"/><path d="M70.8 88.9c.4.4 1 .7 1.6.8.6.1 1.2 0 1.8-.2 1.1-.6 2-1.5 2.6-2.6 0-.1.2-.1.3-.1.1 0 .1.1.1.2 0 .3-.1.7-.3 1-.1.3-.3.6-.5.9-.4.6-1 1.1-1.7 1.4-.7.3-1.5.4-2.3.2-.4-.1-.7-.3-1.1-.5-.3-.2-.6-.5-.7-.9l-.1-.1c0-.1 0-.3.1-.3 0 0 .2.1.2.2zM15.9 50.9c.1 1.6-.2 3.2-.8 4.7-.7 1.4-1.5 2.8-2.4 4.1-.8 1.4-1.7 2.6-2.8 3.9-1 1.2-2.2 2.3-2.5 3.8 0 .1-.1.2-.2.2s-.2-.2-.2-.3c.1-.9.3-1.7.8-2.4s1-1.3 1.4-1.9c.9-1.2 1.8-2.5 2.6-3.8.9-1.3 1.7-2.5 2.4-3.9.3-.6.6-1.3.8-2 .2-.7.3-1.5.4-2.3 0-.1.1-.3.3-.3.1 0 .3.1.3.3v-.1zM18.2 58.2c0 .9-.1 1.8-.3 2.7-.2.8-.4 1.7-.5 2.6.1.9.2 1.7.4 2.6.2.9 0 1.9-.6 2.7-.1.1-.2.1-.3 0-.1-.1-.1-.1-.1-.2v-.1c.2-.4.2-.7.2-1.1 0-.4-.1-.8-.2-1.1-.3-.9-.5-1.8-.6-2.7 0-1 .2-1.9.6-2.8.1-.4.3-.8.4-1.2.1-.4.2-.8.4-1.3V58c0-.1.2-.2.3-.2.2.1.3.2.3.4zM62.9 56.6c.9 3.9 1.5 7.9 1.7 11.9 0 2 .5 4 1.5 5.7 1.1 1.7 2.4 3.2 3.9 4.5.1.1.1.2 0 .3-.1.1-.2.1-.3 0-.8-.6-1.6-1.2-2.4-1.9-.7-.7-1.4-1.5-2-2.4-.6-.9-1.1-1.9-1.3-3-.2-1-.4-2.1-.5-3.1-.1-2-.3-3.9-.5-5.9l-.3-3-.3-3c0-.1.1-.3.2-.3.2 0 .3.1.3.2zM66.5 56.1c-.3.7-.4 1.4-.3 2.1.1.7.3 1.5.7 2.1.4.6.9 1.3 1.4 1.8.6.6.6 1.5 1 2 .1.1.1.2 0 .3-.1.1-.2.1-.2 0H69c-.3-.3-.5-.7-.7-1-.1-.3-.3-.5-.6-.7-.7-.5-1.2-1.2-1.7-1.9-.4-.8-.7-1.6-.7-2.5 0-.4 0-.9.1-1.3s.3-.8.6-1.2l.1-.1c.1-.1.3-.1.3 0 .1.2.1.3.1.4zM44 49.3c-.7 1.4-.9 3-.5 4.5s1 3 1.8 4.4c.6 1.5 1.7 2.7 3 3.6 1.4.8 2.8 1.7 4 2.8.1.1.1.2 0 .3-.1.1-.2.1-.3 0-.7-.4-1.3-.9-2-1.2s-1.2-.7-2-1.1c-.8-.4-1.5-1-2-1.7s-1-1.4-1.4-2.2c-.8-1.5-1.4-3-1.8-4.7-.1-.9-.2-1.7-.1-2.6.1-.9.5-1.7 1-2.4.1-.1.2-.1.3 0 .1.1.1.2 0 .3z" class="st0"/><path d="M43.7 49.5c-.3 1.5-.7 3-1.2 4.4-.6 1.4-1.4 2.7-2.4 3.9-1 1.2-2.1 2.2-3.5 3-1.3.8-2.9 1.2-3.9 2.2-.1.1-.2.1-.3 0-.1-.1-.1-.2 0-.3.5-.7 1.1-1.2 1.8-1.6.7-.3 1.3-.7 1.9-1.1 1.2-.8 2.2-1.8 3.1-2.9.9-1.1 1.7-2.3 2.3-3.6.3-.6.6-1.3.8-2 .3-.7.5-1.5.8-2.2.1-.1.2-.2.3-.1.2.1.3.2.3.3z" class="st0"/><path d="M43 49.8c-.5 2.1-.7 4.3-.6 6.5.1 1.1.4 2.1.8 3.1.5 1 .8 2.1.8 3.2 0 .1-.1.2-.2.2s-.1-.1-.2-.1v-.1c-.1-.5-.3-1-.5-1.5s-.5-.9-.7-1.4c-.5-1-.9-2.2-1-3.3-.1-1.1 0-2.3.2-3.4.1-.5.2-1.1.4-1.6s.3-1.1.6-1.6v-.1c.1-.1.2-.2.3-.1 0 0 .1.1.1.2z" class="st0"/><path d="M43 49c0 1.3-.2 2.6-.4 3.9-.3 1.3-.6 2.5-1.1 3.8-.9 2.4-2.1 4.8-3.5 7-.7 1.1-1.3 2.2-2 3.3-.7 1.1-1.4 2.2-2 3.3-1 2.4-1 5 0 7.4 0 .1 0 .2-.2.3-.1 0-.2 0-.2-.1-1.3-2.5-1.5-5.4-.4-8 .6-1.2 1.3-2.4 2-3.5s1.3-2.2 2-3.3 1.3-2.2 1.9-3.3 1.1-2.3 1.6-3.5c.9-2.3 1.5-4.8 1.8-7.3 0-.1.1-.2.3-.2.1 0 .2.1.2.2z" class="st0"/><path d="M43.3 50.5c-.4 1.1-.4 2.3-.2 3.5.3 1.2.7 2.3 1.3 3.3.6 1 1.3 2 2 3s1.1 2.2 1.3 3.4c.2 1.2.3 2.4.5 3.6.1 1.2.1 2.4-.1 3.6-.2.5-.2 1.1-.1 1.7.3.5.7 1 1.1 1.3 1 .9 1.2 2.4.5 3.5-.1.1-.2.1-.3.1-.1-.1-.1-.2-.1-.3.2-.5.3-1 .2-1.5-.1-.5-.4-.9-.8-1.2-.6-.4-1-.9-1.3-1.5-.2-.7-.3-1.5-.1-2.2.1-1.1.1-2.3 0-3.4-.1-1.2-.3-2.4-.5-3.5s-.6-2.1-1.2-3c-.7-1-1.4-2-2-3.1-.6-1.1-1-2.3-1.3-3.6-.2-1.3-.1-2.6.4-3.8.1-.1.2-.2.3-.1.3 0 .4 0 .4.2z" class="st0"/></g></g></svg>