<svg xmlns="http://www.w3.org/2000/svg" xml:space="preserve" id="Слой_1" x="0" y="0" style="enable-background:new 0 0 69 94" version="1.1" viewBox="0 0 69 94"><style>.st0{fill:#264f26}</style><g id="Слой_2_00000121989462897134502560000017822122018553695621_"><g id="Слой_1-2"><path d="M46.9 10.1c4.9-.1 14.6-.2 19.5-.3h.3v.3c-1.5 13.5-2.7 27.1-6.5 40.2-8 22.1-13-36-13.3-40.2 1.8 13.4 3.2 27 7.1 39.9 2 5.6 3.3 5.7 5.3 0 3.8-13 5.1-26.6 6.8-39.9l.3.3c-4.9 0-14.7-.2-19.5-.3z" class="st0"/><path d="M57.6 54.8c.4 11.4.4 22.9.5 34.3v.6c.1.8-.6 1.6-1.4 1.6-.8.1-1.6-.6-1.6-1.4v-.8c0-11.2.1-23.1.5-34.3.4 11.4.5 23.5.5 34.9 0 .3.2.6.5.6.2 0 .4-.1.5-.2.1-.3.1-.6.1-.9-.1-11.5 0-22.9.4-34.4z" class="st0"/><path d="M57.6 88.2c2.9-.2 5.9.1 8.8.8 1 .2 1.8.7 2.4 1.4.4 1.5-1.5 2.1-2.6 2.4-4.8 1.2-9.8 1.5-14.7.8-2-.3-4-.5-5.8-1.7-.3-.2-.4-.5-.5-.8-.3-1 .9-1.6 1.6-1.9 2.8-.9 5.8-1.2 8.8-1.1-2.9.1-5.8.7-8.5 1.7-2.8 1.2.3 2 1.8 2.4 2.8.6 5.7.8 8.6.7 3.3-.1 6.8-.2 9.9-1.4.4-.2.8-.5.8-.7s-.2-.5-.6-.7c-3.1-1.4-6.6-1.6-10-1.9zM49.1 28c5-.7 10.1-.7 15.1 0-5 .7-10.1.7-15.1 0zM55.2 32.8c0 .9-.7 1.6-1.6 1.6-.9 0-1.6-.7-1.6-1.6 0-.9.7-1.6 1.6-1.6.8 0 1.6.7 1.6 1.6zm0 0c0-.6-.5-1.1-1.1-1.1-.6 0-1.1.5-1.1 1.1 0 .6.5 1.1 1.1 1.1s1.1-.5 1.1-1.1zM57.4 37.8c0 .4-.3.6-.6.6s-.6-.3-.6-.6c0-.4.3-.6.6-.6s.6.2.6.6c0-.1 0-.1 0 0zm0 0c0-.2-.3-.3-.4-.1s.1.2.1.1-.2 0-.1.1.4.1.4-.1zM61.3 31.7c0 .3-.2.6-.5.6s-.6-.2-.6-.5v-.1c0-.3.2-.6.5-.6s.6.2.6.5v.1zm0 0c0-.2-.3-.2-.3 0s.2.2.3 0c-.1-.2-.3-.1-.3 0s.3.1.3 0zM58.2 42.6c0 .5-.4.9-.9.9s-.9-.4-.9-.9.4-.9.9-.9c.6.1.9.4.9.9zm0 0c0-.6-.9-.5-.7 0-.1.5.7.7.7 0zM62.3 36.7c.1.5-.3 1-.8 1-.5.1-1-.3-1-.8v-.2c-.1-.5.3-1 .8-1 .5-.1 1 .3 1 .8v.2zm0 0c0-.7-.9-.6-.8 0-.1.6.8.7.8 0zM29 0c4.6 1.6 13.8 4.7 18.4 6.3l.3.1-.1.3c-5.9 12.2-11.7 24.7-19.7 35.6C12.9 60.3 27.8 4 29 0c-2.8 13.2-6.1 26.5-6.8 40-.1 6 1.2 6.5 5 1.8 7.9-11 13.7-23.3 19.8-35.3l.2.4C42.6 5.2 33.5 1.7 29 0z" class="st0"/><path d="M24 45.7c-3.6 11-7.5 22-11.3 33-.3.8-1.1 1.3-1.9 1h-.1l-.3-.5.3.5c-.5-.2-.9-.7-1-1.3 0-.5.1-.9.3-1.3 3.8-10.5 7.9-21.7 12-32.1-3.4 10.7-7.4 21.9-11.1 32.4-.1.2-.3.7-.2.9 0 .2.2.4.4.4l.3.5-.4-.4c.3.1.6-.1.7-.3v-.1c4-10.9 8-21.9 12.3-32.7z" class="st0"/><path d="M12.7 77.1c2.8.8 5.5 2.1 8 3.7.8.5 1.5 1.3 1.8 2.2-.1 1.5-2.1 1.4-3.2 1.4-4.9-.5-9.7-2-14.1-4.3-1.8-1-3.6-1.8-4.8-3.6-.3-.2-.4-.5-.4-.8.1-1 1.4-1.2 2.1-1.2 3 .2 5.9.8 8.6 2-2.8-.8-5.7-1.3-8.6-1.3-.7 0-1.9.2-1.3 1.1 2.6 2.7 6.5 4.1 10 5.4 3.1 1 6.4 2.2 9.8 2 .4 0 .9-.2 1-.4s0-.6-.3-.9c-2.3-2.5-5.5-3.8-8.6-5.3zM24.3 20.9c5-.1 10 .5 14.9 1.7-5 .2-10-.4-14.9-1.7zM29.1 24.1c-.3.9-1.3 1.3-2.1 1s-1.3-1.3-1-2.1c.3-.9 1.2-1.3 2.1-1s1.3 1.3 1 2.1zm0 0c.3-.6.1-1.2-.5-1.5-.6-.3-1.2-.1-1.5.5 0 .1-.1.2-.1.3-.2.6.1 1.2.7 1.5s1.2-.2 1.4-.8zM29.5 29.5c-.1.3-.5.5-.8.4-.3-.1-.5-.5-.4-.8.1-.3.5-.5.8-.4.4.1.6.5.4.8zm0 0c.1-.2-.2-.4-.3-.3s0 .2 0 .2-.2-.1-.1.1.4.3.4 0zM35.2 25.1c-.1.3-.4.4-.7.3s-.4-.4-.3-.7.4-.4.7-.3.4.5.3.7zm0 0c.1-.1-.2-.2-.2-.1s.1.3.2.1c0-.2-.2-.2-.2-.1s.2.3.2.1zM28.7 34.4c-.2.5-.7.7-1.1.5-.5-.2-.7-.7-.5-1.1s.7-.7 1.1-.5c.4.2.7.7.5 1.1zm0 0c.2-.6-.7-.8-.7-.2-.3.4.4.8.7.2zM34.5 30.2c-.2.5-.7.7-1.2.5-.5-.2-.7-.7-.5-1.2s.7-.7 1.2-.5c.5.2.7.7.5 1.2zm0 0c.2-.7-.7-.8-.8-.3-.2.5.5.9.8.3zM53.8 16.7c1.3-.3 2.6.1 3.5 1.1-1.3.4-2.6-.1-3.5-1.1z" class="st0"/><path d="M56.1 15.6c.3 1.3-.1 2.6-1.1 3.4-.3-1.3.1-2.6 1.1-3.4zM65.5 23.1c1.3-.3 2.6.1 3.5 1.1-1.3.3-2.6-.1-3.5-1.1z" class="st0"/><path d="M67.8 21.9c.3 1.3-.1 2.6-1.1 3.5-.3-1.3.1-2.6 1.1-3.5zM60.5 13.8c1.8-.1 3.6.5 5 1.6-1.8.2-3.6-.4-5-1.6z" class="st0"/><path d="M63.8 12.1c.1 1.8-.5 3.6-1.7 5 0-1.8.5-3.6 1.7-5zM26.3 4.8c1.3-.3 2.6.2 3.4 1.2-1.2.3-2.6-.1-3.4-1.2z" class="st0"/><path d="M28.6 3.7c.3 1.3-.1 2.6-1.1 3.5-.4-1.3.1-2.7 1.1-3.5zM33.7 1.8c1.2-.3 2.6.2 3.4 1.2-1.3.3-2.6-.1-3.4-1.2z" class="st0"/><path d="M36 .6c.3 1.3-.1 2.6-1.1 3.5-.3-1.3.1-2.6 1.1-3.5zM30.5 8.8c1.8-.1 3.6.5 5 1.6-1.8.1-3.6-.5-5-1.6z" class="st0"/><path d="M33.8 7.1c.1 1.8-.5 3.6-1.7 5 0-1.8.6-3.6 1.7-5z" class="st0"/></g></g></svg>