<svg xmlns="http://www.w3.org/2000/svg" viewBox="0 0 772.27 178.14"><g data-name="Слой 2"><g data-name="Слой 1"><path d="M67.12 136.28q-2.84-.51-3.35-4.1-.52-10.49 30.44-48.59l2.06-3.33-2.06-.77Q70.74 70.55 62 69q-1 0-17.54 8.44-21.93 12-35.08 26.09-7.23 7.92-7.22 12c0 .34.25.09.77-.77l.26-1 .26 1-.78 1.79c-.51 1.2-1.2 1.37-2.06.51q-1.54-1.53 1-6.39a58.08 58.08 0 0 1 11.61-14.81Q22.76 87.17 39 77.7q2.84-1.53 9.54-4.73c4.47-2.13 7-3.36 7.48-3.71l1.55-1-1.28-.26q-6.19-2-16.25-2-18.83 1-30.95 9.66-4.9 3.59-5.67 6.9c0 1.2 1.54 1.79 4.64 1.79.34 0 .52.09.52.26-.69.68-2.07.85-4.13.51a2.94 2.94 0 0 1-1.55-1q-2.32-4.88 7.74-11.79Q22 65.18 39.53 64.4a71.23 71.23 0 0 1 18 2l2.84.51L82.34 57q45.91-20.73 51.84-24.05a15.8 15.8 0 0 0 5.16-4.09q9-10 24.25-21.23Q170.3 2 174.94.2a4.53 4.53 0 0 1 3.35.26c1 .51 1.46 1.19 1.29 2.05q0 2.81-12.12 11.76-15 11.27-18.32 13.05a12.84 12.84 0 0 0-4.38 2.81q-7.74 6.66-27.6 31.2-15.22 17.91-15.22 19.19 31 13 35.85 8.69c1.21-1 2-1.36 2.33-1 .51.34 0 1.11-1.55 2.3-2.75 1.71-6.37 2.05-10.83 1s-13.42-4.26-26.83-9.72l-2.06 2.55Q77.43 110.2 69.7 124.51 65.32 133 67.12 135c.88.85.88 1.28 0 1.28Zm30.44-57.55a31.64 31.64 0 0 0 2.84-3.33q5.14-6.14 14.7-18.16t13.15-16.11l3.61-4.35-4.12 1.79q-11.86 5.88-47.46 22l-13.93 6.14L64 68a7.29 7.29 0 0 1 1.55.26q6.7 1.8 14.7 4.35c5.33 1.7 9.54 3.16 12.64 4.35Zm56.23-57.3 1.8-1.28a145.79 145.79 0 0 0 19.6-16.37l.26-.51a40.29 40.29 0 0 0-4.64 3.33q-3.36 2.55-14.7 12.53Z"/><path d="M82.85 178c-.16.34-.6.17-1.29-.51l-.77-.26 2.32-3.58 24.76-40.16q31.22-49.11 45.91-67.27c1.2-1.36 2.07-2 2.58-1.79.52 0 .78.09.78.26q0 1.28-9.29 14.58l-6.19 8.7.52.76.51 1 4.64-2.56q6.71-3.33 9.81-3.84c1.71 0 2.74.51 3.09 1.54q1 2.55-4.64 10l-3.35 3.84q9.8 3.84 24-4.1c2.92-1.7 5.94-3.66 9-5.88.34-.34.64-.42.9-.25s.3.42.13.76L185 90.49a53.68 53.68 0 0 1-9.54 6.14Q162 103.54 150.69 100l-2.32 2.55q-9.28 8.7-12.64 2.82-1.29-2.55 0-6.65l.27-1.32q-.53.76-6.19 8.69-13.16 17.91-29.68 45.28-15.46 24.8-17.28 26.63Zm55.2-71.88c1.37.35 3-.25 4.9-1.79a18.93 18.93 0 0 0 2.19-1.79c1-.85 1.76-1.61 2.45-2.3l.78-1.28a16.78 16.78 0 0 1-5.94-5.62c-.17-.52-.68-.43-1.54.25a10.48 10.48 0 0 0-2.58 3.84q-2.85 7.91-.26 8.66Zm11.61-8.44c.17 0 .64-.42 1.42-1.27s1.67-1.92 2.7-3.2A28.12 28.12 0 0 0 156.1 90a13.25 13.25 0 0 0 2.07-3.58c.34-.85.43-1.36.26-1.53q-.78-.78-8.52 2.81c-4.12 2.22-6.19 3.75-6.19 4.6 0 .51.73 1.54 2.2 3.07s2.7 2.28 3.74 2.28Z"/><path d="M216.46 106.09q4.11.78 25-15.34a19.19 19.19 0 0 1 4.12-2.81c.35-.17.6-.13.78.12a.48.48 0 0 1 0 .64q-.52.52-4.39 3.58c-1.38 1-3.05 2.26-5 3.71s-3.52 2.6-4.64 3.45-2.41 1.8-3.87 2.82-2.62 1.79-3.48 2.3-1.85 1.07-3 1.66a8.51 8.51 0 0 1-2.71 1c-.69.08-1.46.17-2.32.25a3.59 3.59 0 0 1-2.19-.38 9.06 9.06 0 0 1-1.93-1.54q-2.59-2.55-1.55-8.69l.77-2.31c.34-1 .56-1.74.65-2.17a1.78 1.78 0 0 0-.13-1.15c-1.38 1-2.75 2.13-4.13 3.32q-8 6.66-8 9a.46.46 0 0 1-.52.51c-1 0-1.38-.42-1-1.28q.51-1.53 6.7-11 5.67-8.68 6.19-10.49c.17-.85.09-1.36-.25-1.53a4.13 4.13 0 0 0-2.32.26q-9.81 2-23.22 13a49.54 49.54 0 0 0-3.74 3.45c-1.63 1.63-3.09 3.07-4.38 4.35A10.27 10.27 0 0 0 176 103l-.26.51c-.16.17-.47.13-.9-.13s-.64-.47-.64-.64q0-1.53 8.51-11.51c2.06-2.39 3.78-4.26 5.16-5.63 1.71-1.7 2.92-2.38 3.61-2a1 1 0 0 1 .26.76c0 .86-1.12 2.39-3.36 4.61l-.51.51a28 28 0 0 0 2.58-1.79q11.34-9.21 19.6-9.21a6.23 6.23 0 0 1 3.61.9 2.56 2.56 0 0 1 1 2.68q-.26 2.06-3.87 6.91a34.86 34.86 0 0 0-2.33 3.03l-.26.25a2.84 2.84 0 0 0 .78-.51c1.71-1.19 2.92-1.79 3.61-1.79a2.14 2.14 0 0 1 1.16.26.84.84 0 0 1 .39.76v.9a3.82 3.82 0 0 1-.39 1.28 3.88 3.88 0 0 0-.39 1.4q-2.58 10.79 3.1 11.54Z"/><path d="M237.6 102.51q-3.34-3.32.52-8.69a16.9 16.9 0 0 1 8.25-7.16q3.1-1.29 4.39 0c.68.51.81 1.36.38 2.55a6.36 6.36 0 0 1-2.45 3.07 16.59 16.59 0 0 1-7.48 3.07 2.18 2.18 0 0 0-1.8 1.28q-3.09 5.37 2.84 6.14 11.59 0 28.88-12l3.1-2c.17-.17.43-.17.77 0a.51.51 0 0 1 .26.77 79.32 79.32 0 0 1-21.67 12.28q-12.12 4.53-15.99.69Zm3.87-8.69q1.8 0 5.16-2a8 8 0 0 0 3.1-3.32c.17-.51 0-.77-.52-.77l-2.84 1.53q-5.16 3.79-4.9 4.56ZM250 80a3.63 3.63 0 0 1 2.07-3.07 1.1 1.1 0 0 1 1 0c.86.34.86.76 0 1.28l-1.55 1.27c-1.02 1.04-1.52 1.21-1.52.52Zm6.19 2.55c0-1.19.78-2.21 2.33-3.07a1.17 1.17 0 0 1 1 0c.68.18.68.6 0 1.28L258 82.05c-1.23 1.2-1.83 1.37-1.83.51Z"/><path d="M296.66 110.19c-2.57 1-4.47.94-5.67-.26q-3.62-3.57 3.35-14.07l1.81-2.55-4.39 2.81q-5.67 3.33-7 2c0-.17-.17-.43-.52-.77l-.25-.51c0-1.19.94-3.16 2.83-5.89l1-1.53c-.35 0-1.38.77-3.1 2.3q-11.35 8.45-13.67 9a2.13 2.13 0 0 1-2.06-.51c-1.55-1-1.81-2.56-.78-4.6a26.68 26.68 0 0 1 4.13-4.86q3.09-3.07 3.61-3.07c.69 0 1.2.43 1.55 1.28l-1 1a31.77 31.77 0 0 1-2.32 2.56 6 6 0 0 0-1.55 2 19.34 19.34 0 0 0-2.07 3.33l-.51 1.28 1-.26q2.33-.77 11.48-7.29a139.28 139.28 0 0 0 13.8-10.87l2.83-2.55a1.31 1.31 0 0 1 2.07 0q.51.77-5.94 7.92-10.83 11.52-8.76 11.51c.68-.16 2.92-1.53 6.7-4.09a87.64 87.64 0 0 0 8-5.88q7.74-7.16 8.77-7.16c.34-.17.73 0 1.16.38a1.31 1.31 0 0 1 .38 1.41q0 .76-7 7.16l-5.16 5.11q-7.22 8.19-7.74 13.82v1.28l1.55-.26Q298 108.91 309 101q13.15-9.72 15.74-11.51l1.55-1q1-.26 1.29.51a27.09 27.09 0 0 1-3 2.43c-1.29.94-2 1.49-2.19 1.66l-14.7 11q-7.16 4.82-11.03 6.1ZM395.19 110.7q-12.13 1.27-16.38-7.55T381 82.31a40.22 40.22 0 0 1 24.25-19.7 26.54 26.54 0 0 1 7.22-.76h4.38l-.51-1c-.69-1.53-.61-3.75.26-6.65l.51-1.79-1.29-.51a8.42 8.42 0 0 1-5.41-5.37c-.87-2.56-.52-4.69 1-6.39.86-1.2 1.63-1.45 2.32-.77.17 0 .08.17-.26.51a5 5 0 0 0-1.29 1.79Q410.14 47 414 49.82q3.09 2.31 3.61 1.54 1.55-3.31 8.51-7.42a26.38 26.38 0 0 1 8.64-3.2c3.18-.59 5.55-.55 7.09.13q2.58 1.29 2.58 3.58 0 3.07-7.74 6.14a35.37 35.37 0 0 1-11.86 2.56h-4.38l-1 2.05a8.63 8.63 0 0 0-1 4.34 5 5 0 0 0 .78 3.07c.68 1 .94 1.54.77 1.54a5.81 5.81 0 0 1-1.81-.26q-7-2.55-18.31 3.84a40.55 40.55 0 0 0-16 15.35q-5.67 9.72-3.87 17.64 1.54 7.43 8.77 8.19a26 26 0 0 0 9.54-.77q10.58-2.81 23-13a74.55 74.55 0 0 0 14.19-16.88c1-1.71 2.19-3.75 3.48-6.14s2.36-4.39 3.22-6 1.2-2.52 1-2.69q-.77-.77-13.41 5.12a24.59 24.59 0 0 0-10.83 9.72l-1.29 2.55c.34.35.34.51 0 .51q-2.58 0 0-5.11a10.68 10.68 0 0 1 2.32-3.38q3.87-4.34 16.76-9a55.71 55.71 0 0 0 6.24-2.38c.78-.42 1.08-.81.91-1.15s-.18-.51 0-.51a8.18 8.18 0 0 1 1.29.26q1.27.51 8.51-3.33 13.92-7.15 13.93-8.95c0-.34.16-.43.51-.26Q471 49.07 457.86 56c-1.54.86-3.18 1.71-4.9 2.56q-7 3.33-7 4.09 0 3.08-6.45 14.84a65.79 65.79 0 0 1-11.86 15.6 82.3 82.3 0 0 1-8.51 7.42q-12.35 9.17-23.95 10.19Zm26.31-58.83c0 .17 1.2.17 3.61 0a49.14 49.14 0 0 0 6.19-.77 19.68 19.68 0 0 0 10.32-5.1c1.2-1.36 1.45-2.39.77-3.07a3 3 0 0 0-2.06-.51q-5.94 0-14.19 5.37c-3.14 2.03-4.64 3.4-4.64 4.08ZM593.27 20.15q2.33 16.89-8.9 40.42T552 106.86q-25.79 27.63-41.78 27.63h-1.29q-12.37 0-11.86-13.56.51-11.25 7.73-27.5a161.1 161.1 0 0 1 19.86-32.61q5.94-7.66 7.48-12.27Q538.59 30.39 545 22.2q9.54-12.78 21.41-17.14 10-3.82 17.67.26t9.19 14.83Zm-2.06 12.28q1.8-13.82-4.9-15.86t-18.83 7.17A169.16 169.16 0 0 0 536 53.41a18.37 18.37 0 0 0-4.12 8.18q-.78 4.35 1 6.65l.77.77h-.51c-2.07 0-3.27-.85-3.62-2.56l-1-4.09-4.64 6.14A132.58 132.58 0 0 0 510 92.41q-6.45 13.95-8.38 25.07t3.74 14.19q10.57 4.1 28.89-11.12a194.77 194.77 0 0 0 32-33.64q21.85-29.4 24.96-54.48ZM564.13 9.67q-17.29 10.74-26.31 35.81c.17-.52 1.68-2.18 4.51-5a166.39 166.39 0 0 1 13.16-11.26 125.82 125.82 0 0 1 18.44-12.15q8.76-4.59 15.73-2-2.83-7.41-10.06-8.95t-15.47 3.55ZM592.75 105.58q-5.41-1.78-1.8-13.3l.51-2c-.34-.34-1.46.25-3.35 1.79a61.11 61.11 0 0 0-5.41 4.73 23.63 23.63 0 0 0-3.87 4.22 4.4 4.4 0 0 0-.78 1.79c0 .68-.34.68-1 0Q575 100.73 583 90a48.26 48.26 0 0 1 7.22-7.93q2.07-1.78 3.1-.51c.52.68-.35 2.22-2.58 4.6a30.44 30.44 0 0 0-5.21 5.84 4.06 4.06 0 0 0 1-.77 66.29 66.29 0 0 1 20.12-12c1.89-.68 3.36-.77 4.39-.26a2.48 2.48 0 0 1 1.29 2.82c-.18 1-1.16 2.85-3 5.5a29.42 29.42 0 0 1-4.51 5.49c-1.21 1.2-2.07 1.54-2.58 1-.18-.17.08-.51.77-1 .86-.67 2.58-2.81 5.16-6.39 1.72-3.07 2.58-4.94 2.58-5.63q0-2.3-10.32 3.07a2.77 2.77 0 0 1-.77.51q-6.45 3.59-7.48 4.61a1 1 0 0 0 .26.77q.76.76-.52 4.34a21.07 21.07 0 0 0-.52 5.12q-.26 5.37 3.36 5.37 5.16 0 15.73-7.16c1.38-.85 4-2.82 7.74-5.88L621.9 89l.77-.51c.35-.17.6-.17.78 0v1L621.38 91q-12.63 9.73-18.82 12.79t-9.81 1.79Z"/><path d="M617 103.28a5.14 5.14 0 0 1-1.81-5.88 22.31 22.31 0 0 1 5.29-7.67 26.12 26.12 0 0 1 8.12-5.89 6.83 6.83 0 0 1 4.13-.64c1.2.26 1.81.81 1.81 1.67 0 1.36-1 3.15-3.1 5.37-2.58 2.22-4.3 3.32-5.16 3.32-1.2 0-1-.51.52-1.53a21.28 21.28 0 0 0 4.9-4.22q2.06-2.43 1.29-3.2c-.52-.51-2.16.17-4.9 2a27.8 27.8 0 0 0-8.64 8c-2.16 3.16-2.8 5.5-1.94 7q1 2.3 7.74 1.53a47.4 47.4 0 0 0 14.44-4.35 86.81 86.81 0 0 0 13.67-8.18c.52-.34 1.2-.77 2.07-1.28l1.29-1a1 1 0 0 1 1 .76l-1.29 1a98.18 98.18 0 0 1-10.84 7.16l-5.59 2.96q-16.3 7.94-23 3.07Z"/><path d="M659 106.61q-1.8-1-1.8-3.84a14.21 14.21 0 0 1 1-5.37l.52-1.28-1.55.77a13.86 13.86 0 0 1-2.32 1.53c-.35.17-.95.51-1.81 1s-1.55.94-2.06 1.28a2.66 2.66 0 0 1-3.23-.12c-.94-.77-1.16-1.92-.64-3.46.69-1.7 2.53-3.75 5.55-6.14a24.37 24.37 0 0 1 8.12-4.6q3.09-.77 4.38 1.28.53.76.78.51 1.29-.51 1.8.51l-.25.26a9.6 9.6 0 0 1-.52.89 9 9 0 0 0-.52.9q-5.16 5.11-6.7 9.21c-.86 2.73-.78 4.52.26 5.37q2.31 1.53 10.57-1.79 8.52-3.33 21.15-12.79c2.92-2.22 4.3-2.81 4.13-1.79q-.27 1-7.1 5.88a120.64 120.64 0 0 1-12 7.67 57.07 57.07 0 0 1-6.71 3.07 27.69 27.69 0 0 1-6.31 1.67 7.69 7.69 0 0 1-4.74-.62Zm-7-10c-.86 1-1.2 1.54-1 1.54a40.94 40.94 0 0 0 4.38-2.31c5.85-3.23 8.77-5.71 8.77-7.41-.34-1-1.72-.68-4.12 1a34.91 34.91 0 0 0-7.96 7.2Z"/><path d="M706 105.84q-6.19 1.78-8.26-1.54-1.54-3.06 3.1-9.2c1-1.37 1.46-2 1.29-2a10.88 10.88 0 0 1-4.13.51l-3.61.26-3.87 4.09q-5.41 6.14-5.16 7.16c.17.51 0 .77-.51.77l-.52-.51a3 3 0 0 1-.77-.51 2.63 2.63 0 0 1-.26-2l1.8-3.33q1.56-2 7.87-8.82t8.38-8.82c1.89-1.54 3.1-2 3.61-1.54 1.2.86-.6 3.75-5.41 8.7l-4.13 3.83 2.84-.25q4.89-.26 7-2.05 5.41-5.11 7-3.58 1.27 1-1.29 3.07a65.58 65.58 0 0 0-6.32 6 36.7 36.7 0 0 0-4.52 5.5q-1.29 3.84 1.68 3.84a15.11 15.11 0 0 0 6.58-1.79Q715 101 728.16 91.77l4.9-3.32c.34-.17.6-.17.77 0s.17.42 0 .76q-.76 1-12.38 9-9.03 6.35-15.45 7.63Z"/><path d="M735.38 106.61c-1.21-.68-1.81-2-1.81-3.84a14.21 14.21 0 0 1 1-5.37l.52-1.28-1.55.77a13.46 13.46 0 0 1-2.32 1.53q-.53.26-1.8 1c-.87.52-1.55.94-2.07 1.28a2.64 2.64 0 0 1-3.22-.12c-.95-.77-1.16-1.92-.65-3.46q1-2.55 5.55-6.14a24.37 24.37 0 0 1 8.12-4.6c2.07-.51 3.52-.08 4.39 1.28.34.51.6.68.77.51.86-.34 1.46-.17 1.81.51l-.26.26a7.78 7.78 0 0 1-.52.89 9 9 0 0 0-.51.9q-5.18 5.11-6.71 9.21-1.29 4.1.26 5.37 2.33 1.53 10.57-1.79 8.52-3.33 21.15-12.79c2.93-2.22 4.3-2.81 4.13-1.79q-.25 1-7.09 5.88a121.81 121.81 0 0 1-12 7.67 57 57 0 0 1-6.7 3.07 27.9 27.9 0 0 1-6.32 1.67 7.65 7.65 0 0 1-4.74-.62Zm-7-10c-.86 1-1.2 1.54-1 1.54a41.54 41.54 0 0 0 4.39-2.31c5.84-3.23 8.77-5.71 8.77-7.41-.35-1-1.73-.68-4.13 1a34.91 34.91 0 0 0-8 7.2Z"/></g></g></svg>