<svg xmlns="http://www.w3.org/2000/svg" data-name="Слой 2" viewBox="0 0 246.25 171.7"><g data-name="Слой 1"><path d="M36.49 74.09c-1.03-.18-1.64-.93-1.82-2.22-.19-3.8 5.33-12.61 16.55-26.42l1.12-1.81-1.12-.42c-8.51-3.24-14.35-5.15-17.53-5.7-.38 0-3.55 1.53-9.54 4.59-7.95 4.36-14.3 9.09-19.07 14.18-2.62 2.87-3.93 5.05-3.93 6.54 0 .19.14.05.42-.42l.14-.56.14.56-.42.97c-.28.65-.65.74-1.12.28-.56-.56-.37-1.71.56-3.48a31.51 31.51 0 0 1 6.31-8.07c3.46-3.15 8.13-6.44 14.02-9.87 1.03-.56 2.76-1.41 5.19-2.57 2.43-1.16 3.79-1.83 4.07-2.02l.84-.56-.7-.14c-2.24-.74-5.19-1.11-8.83-1.11-6.83.37-12.43 2.13-16.83 5.28-1.78 1.3-2.8 2.55-3.08 3.75 0 .65.84.97 2.52.97.19 0 .28.05.28.14-.38.37-1.12.46-2.24.28-.47-.19-.75-.37-.84-.56-.84-1.76.56-3.89 4.21-6.4 4.11-2.59 9.35-4.03 15.71-4.31 3.74 0 7.01.37 9.82 1.11l1.54.28 11.92-5.42c16.64-7.51 26.03-11.87 28.19-13.07 1.21-.65 2.15-1.39 2.8-2.23 3.27-3.62 7.66-7.46 13.18-11.54C91.38 2.08 93.44.74 95.12.09c.65-.18 1.26-.14 1.82.14s.79.65.7 1.11c0 1.02-2.2 3.15-6.59 6.4-5.42 4.08-8.74 6.44-9.96 7.09-.94.37-1.73.88-2.38 1.53-2.8 2.41-7.81 8.07-15 16.97-5.52 6.49-8.27 9.97-8.27 10.43 11.22 4.73 17.71 6.31 19.49 4.73.65-.56 1.07-.74 1.26-.56.28.19 0 .6-.84 1.25-1.5.93-3.46 1.11-5.89.56-2.43-.56-7.29-2.32-14.58-5.28l-1.12 1.39C46 55.21 40.72 62.49 37.91 67.68c-1.59 3.06-2.06 4.96-1.4 5.7.47.47.47.7 0 .7ZM53.04 42.8c.47-.46.98-1.06 1.54-1.81 1.87-2.22 4.53-5.51 7.99-9.87 3.46-4.36 5.84-7.28 7.15-8.76L71.68 20l-2.24.97c-4.3 2.13-12.9 6.12-25.8 11.96l-7.57 3.34-1.26.7c.19 0 .47.05.84.14 2.43.65 5.09 1.44 7.99 2.36 2.9.93 5.19 1.72 6.87 2.36l2.52.97Zm30.57-31.15.98-.7c3.74-2.59 7.29-5.56 10.66-8.9l.14-.28c-.38.19-1.22.79-2.52 1.81-1.22.93-3.88 3.2-7.99 6.81l-1.26 1.25Z"/><path d="M45.05 96.76c-.09.18-.33.09-.7-.28l-.42-.14 1.26-1.95 13.46-21.83c11.31-17.8 19.63-29.99 24.96-36.57.65-.74 1.12-1.06 1.4-.97.28 0 .42.05.42.14 0 .46-1.68 3.11-5.05 7.93l-3.37 4.73.28.42.28.56 2.52-1.39c2.43-1.2 4.21-1.9 5.33-2.09.93 0 1.49.28 1.68.83.37.93-.47 2.74-2.52 5.42l-1.82 2.09c3.55 1.39 7.9.65 13.04-2.23a63.59 63.59 0 0 0 4.91-3.2c.19-.19.35-.23.49-.14s.16.23.07.42l-.7.7c-2.06 1.58-3.79 2.69-5.19 3.34-4.86 2.5-9.35 3.11-13.46 1.81l-1.26 1.39c-3.37 3.15-5.66 3.66-6.87 1.53-.47-.93-.47-2.13 0-3.62l.14-.7c-.19.28-1.31 1.86-3.37 4.73-4.77 6.49-10.14 14.69-16.13 24.61-5.61 8.99-8.74 13.81-9.4 14.46Zm30.01-39.08c.75.19 1.63-.14 2.66-.97.28-.18.68-.51 1.19-.97.51-.46.96-.88 1.33-1.25l.42-.7c-1.22-.65-2.29-1.67-3.23-3.06-.09-.28-.38-.23-.84.14-.47.37-.94 1.07-1.4 2.09-1.03 2.87-1.08 4.45-.14 4.73Zm6.31-4.59c.09 0 .35-.23.77-.69.42-.46.91-1.04 1.47-1.74.56-.7.98-1.27 1.26-1.74.56-.74.93-1.39 1.12-1.95.19-.46.23-.74.14-.83-.28-.28-1.82.23-4.63 1.53-2.24 1.21-3.37 2.04-3.37 2.5 0 .28.4.83 1.19 1.67.79.83 1.47 1.25 2.03 1.25Z"/><path d="M117.68 57.68c1.49.28 6.03-2.5 13.6-8.34 1.03-.83 1.77-1.34 2.24-1.53.19-.09.33-.07.42.07.09.14.09.26 0 .35-.19.19-.98.83-2.38 1.95-.75.56-1.66 1.23-2.73 2.02-1.08.79-1.92 1.41-2.52 1.88-.61.46-1.31.97-2.1 1.53s-1.43.97-1.89 1.25c-.47.28-1.01.58-1.61.9-.61.33-1.1.51-1.47.56-.38.05-.8.09-1.26.14-.47.05-.87-.02-1.19-.21-.33-.18-.68-.46-1.05-.83-.94-.93-1.22-2.5-.84-4.73.09-.28.23-.7.42-1.25.19-.56.3-.95.35-1.18a.96.96 0 0 0-.07-.63c-.75.56-1.5 1.16-2.24 1.81-2.9 2.41-4.35 4.03-4.35 4.87 0 .19-.09.28-.28.28-.56 0-.75-.23-.56-.7.19-.56 1.4-2.55 3.65-5.98 2.06-3.15 3.18-5.05 3.37-5.7.09-.46.05-.74-.14-.83-.19-.09-.61-.05-1.26.14-3.55.74-7.76 3.11-12.62 7.09-.47.37-1.15 1-2.03 1.88-.89.88-1.68 1.67-2.38 2.36s-1.05 1.09-1.05 1.18l-.14.28c-.09.09-.26.07-.49-.07-.23-.14-.35-.25-.35-.35 0-.56 1.54-2.64 4.63-6.26 1.12-1.3 2.06-2.32 2.8-3.06.93-.93 1.59-1.3 1.96-1.11.09.09.14.23.14.42 0 .46-.61 1.3-1.82 2.5l-.28.28c.19-.09.65-.42 1.4-.97 4.11-3.34 7.66-5.01 10.66-5.01.84 0 1.49.16 1.96.49.47.33.65.81.56 1.46-.09.74-.79 1.99-2.1 3.75-.47.56-.89 1.11-1.26 1.67l-.14.14c.19-.09.33-.18.42-.28.93-.65 1.59-.97 1.96-.97.28 0 .49.05.63.14.14.09.21.23.21.42v.49c0 .14-.07.37-.21.7-.14.33-.21.58-.21.76-.94 3.89-.38 5.98 1.68 6.26Z"/><path d="M129.18 55.73c-1.22-1.2-1.12-2.78.28-4.73 1.03-1.76 2.52-3.06 4.49-3.89 1.12-.46 1.92-.46 2.38 0 .37.28.44.74.21 1.39-.23.65-.68 1.21-1.33 1.67-1.31.93-2.66 1.48-4.07 1.67-.37 0-.7.23-.98.7-1.12 1.95-.61 3.06 1.54 3.34 4.21 0 9.44-2.18 15.71-6.54l1.68-1.11c.09-.09.23-.09.42 0 .19.09.23.23.14.42-3.46 2.78-7.39 5.01-11.78 6.67-4.4 1.67-7.29 1.81-8.69.42Zm2.1-4.73c.65 0 1.59-.37 2.8-1.11.84-.56 1.4-1.16 1.68-1.81.09-.28 0-.42-.28-.42l-1.54.83c-1.87 1.39-2.76 2.23-2.66 2.5Zm4.63-7.51c0-.65.37-1.2 1.12-1.67.19-.09.37-.09.56 0 .47.19.47.42 0 .7l-.84.7c-.56.56-.84.65-.84.28Zm3.37 1.39c0-.65.42-1.2 1.26-1.67.19-.09.37-.09.56 0 .37.09.37.33 0 .7l-.84.7c-.66.65-.98.74-.98.28Z"/><path d="M161.29 59.91c-1.4.56-2.43.51-3.08-.14-1.31-1.3-.7-3.85 1.82-7.65l.98-1.39-2.38 1.53c-2.06 1.21-3.32 1.58-3.79 1.11 0-.09-.09-.23-.28-.42l-.14-.28c0-.65.51-1.71 1.54-3.2l.56-.83c-.19 0-.75.42-1.68 1.25-4.11 3.06-6.59 4.68-7.43 4.87-.47.09-.84 0-1.12-.28-.84-.56-.98-1.39-.42-2.5.37-.65 1.12-1.53 2.24-2.64s1.77-1.67 1.96-1.67c.37 0 .65.23.84.69l-.56.56c-.38.46-.79.93-1.26 1.39-.47.46-.75.83-.84 1.11-.37.46-.75 1.07-1.12 1.81l-.28.7.56-.14c.84-.28 2.92-1.6 6.24-3.96 3.32-2.36 5.82-4.33 7.5-5.91l1.54-1.39c.37-.37.75-.37 1.12 0 .19.28-.89 1.72-3.23 4.31-3.93 4.17-5.52 6.26-4.77 6.26.37-.09 1.59-.83 3.65-2.22 2.05-1.39 3.51-2.46 4.35-3.2 2.8-2.59 4.39-3.89 4.77-3.89.19-.09.4-.02.63.21.23.23.3.49.21.77 0 .28-1.26 1.58-3.79 3.89l-2.8 2.78c-2.62 2.97-4.02 5.47-4.21 7.51v.7l.84-.14c1.68-.18 4.53-1.71 8.55-4.59 4.77-3.52 7.62-5.61 8.55-6.26l.84-.56c.37-.09.61 0 .7.28-.38.37-.91.81-1.61 1.32-.7.51-1.1.81-1.19.9l-7.99 5.98c-2.62 1.76-4.63 2.88-6.03 3.34ZM148.93 109.54c.84 6.12-.77 13.44-4.84 21.97s-9.93 16.92-17.6 25.17c-9.35 10.01-16.92 15.02-22.72 15.02h-.7c-4.49 0-6.64-2.46-6.45-7.37.19-4.08 1.59-9.06 4.21-14.95 2.62-5.89 6.22-11.8 10.8-17.73 2.15-2.78 3.51-5.01 4.07-6.67 2.34-6.58 4.67-11.35 7.01-14.32 3.46-4.63 7.34-7.74 11.64-9.32 3.65-1.39 6.85-1.34 9.61.14s4.42 4.17 4.98 8.07Zm-1.12 6.67c.65-5.01-.23-7.88-2.66-8.62-2.43-.74-5.84.56-10.24 3.89-5.98 4.27-11.69 9.64-17.11 16.13-1.22 1.48-1.96 2.97-2.24 4.45-.28 1.58-.09 2.78.56 3.62l.42.42h-.28c-1.12 0-1.78-.46-1.96-1.39l-.56-2.23-2.52 3.34c-2.71 3.62-5.24 7.95-7.57 13-2.34 5.05-3.86 9.6-4.56 13.63s-.02 6.61 2.03 7.72c3.83 1.48 9.07-.53 15.71-6.05 6.64-5.51 12.43-11.61 17.39-18.29 7.94-10.66 12.48-20.53 13.6-29.62Zm-14.72-12.38c-6.26 3.89-11.03 10.38-14.3 19.47.09-.28.91-1.18 2.45-2.71s3.93-3.57 7.15-6.12a68.57 68.57 0 0 1 10.03-6.61c3.18-1.67 6.03-2.04 8.55-1.11-1.03-2.69-2.85-4.31-5.47-4.87-2.62-.56-5.42.09-8.41 1.95ZM148.65 155.98c-1.96-.65-2.29-3.06-.98-7.23l.28-1.11c-.19-.18-.8.14-1.82.97-.75.56-1.73 1.41-2.94 2.57-1.22 1.16-1.92 1.92-2.1 2.29-.28.46-.42.79-.42.97 0 .37-.19.37-.56 0-.75-.74.33-3.06 3.22-6.95 1.31-1.76 2.62-3.2 3.93-4.31.75-.65 1.31-.74 1.68-.28.28.37-.19 1.21-1.4 2.5-1.22 1.11-2.15 2.18-2.8 3.2.19-.09.37-.23.56-.42 3.65-3.06 7.29-5.24 10.94-6.54 1.03-.37 1.82-.42 2.38-.14.56.28.79.79.7 1.53-.09.56-.63 1.55-1.61 2.99-.98 1.44-1.8 2.43-2.45 2.99-.66.65-1.12.83-1.4.56-.09-.09.05-.28.42-.56.47-.37 1.4-1.53 2.8-3.48.93-1.67 1.4-2.69 1.4-3.06 0-.83-1.87-.28-5.61 1.67-.09.09-.24.19-.42.28-2.34 1.3-3.69 2.13-4.07 2.5 0 .19.05.33.14.42.28.28.19 1.07-.28 2.36-.19.74-.28 1.67-.28 2.78-.09 1.95.51 2.92 1.82 2.92 1.87 0 4.72-1.3 8.55-3.89.75-.46 2.15-1.53 4.21-3.2l1.96-1.39.42-.28c.19-.09.33-.09.42 0v.56l-1.12.83c-4.58 3.52-7.99 5.84-10.24 6.95-2.24 1.11-4.02 1.44-5.33.97Z"/><path d="M161.83 154.73c-1.03-.83-1.36-1.9-.98-3.2.47-1.3 1.42-2.69 2.88-4.17 1.45-1.48 2.92-2.55 4.42-3.2.84-.37 1.59-.49 2.24-.35.65.14.98.44.98.9 0 .74-.56 1.72-1.68 2.92-1.4 1.21-2.34 1.81-2.8 1.81-.66 0-.56-.28.28-.83 1.03-.65 1.92-1.41 2.66-2.29.75-.88.98-1.46.7-1.74s-1.17.09-2.66 1.11c-1.96 1.21-3.53 2.67-4.7 4.38-1.17 1.72-1.52 2.99-1.05 3.82.37.83 1.77 1.11 4.21.83 2.43-.28 5.05-1.06 7.85-2.36 2.52-1.2 5-2.69 7.43-4.45.28-.18.65-.42 1.12-.7l.7-.56c.28 0 .47.14.56.42l-.7.56c-1.4 1.11-3.37 2.41-5.89 3.89l-3.08 1.53c-5.89 2.88-10.05 3.43-12.48 1.67Z"/><path d="M184.68 156.54c-.66-.37-.98-1.06-.98-2.09s.19-1.99.56-2.92l.28-.7-.84.42c-.47.37-.89.65-1.26.83-.19.09-.51.28-.98.56s-.84.51-1.12.7c-.65.37-1.24.35-1.75-.07s-.63-1.04-.35-1.88c.37-.93 1.38-2.04 3.01-3.34 1.63-1.3 3.11-2.13 4.42-2.5 1.12-.28 1.92-.05 2.38.7.19.28.33.37.42.28.47-.18.79-.09.98.28l-.14.14c-.09.19-.19.35-.28.49-.09.14-.19.3-.28.49-1.87 1.86-3.08 3.52-3.65 5.01-.47 1.48-.42 2.46.14 2.92.84.56 2.76.23 5.75-.97 3.08-1.2 6.92-3.52 11.5-6.95 1.59-1.2 2.34-1.53 2.24-.97-.09.37-1.38 1.44-3.86 3.2-2.48 1.76-4.65 3.15-6.52 4.17a31.11 31.11 0 0 1-3.65 1.67c-1.22.46-2.36.76-3.44.9s-1.94.02-2.59-.35Zm-3.79-5.42c-.47.56-.66.83-.56.83s.89-.42 2.38-1.25c3.18-1.76 4.77-3.1 4.77-4.03-.19-.56-.94-.37-2.24.56-1.59 1.02-3.04 2.32-4.35 3.89Z"/><path d="M210.2 156.12c-2.24.65-3.74.37-4.49-.83-.56-1.11 0-2.78 1.68-5.01.56-.74.79-1.11.7-1.11-.38.19-1.12.28-2.24.28l-1.96.14-2.1 2.22c-1.96 2.23-2.9 3.52-2.8 3.89.09.28 0 .42-.28.42l-.28-.28c-.19-.09-.33-.18-.42-.28-.19-.28-.23-.65-.14-1.11l.98-1.81c.56-.74 1.99-2.34 4.28-4.8s3.81-4.05 4.56-4.8c1.03-.83 1.68-1.11 1.96-.83.65.47-.33 2.04-2.94 4.73l-2.24 2.09 1.54-.14c1.77-.09 3.04-.46 3.79-1.11 1.96-1.85 3.23-2.5 3.79-1.95.47.37.23.93-.7 1.67-1.03.83-2.17 1.92-3.44 3.27-1.26 1.35-2.08 2.34-2.45 2.99-.47 1.39-.16 2.09.91 2.09s2.27-.32 3.58-.97c2.43-.93 6.03-3.06 10.8-6.4l2.66-1.81c.19-.09.33-.09.42 0 .09.09.09.23 0 .42-.28.37-2.52 1.99-6.73 4.87-3.27 2.32-6.08 3.71-8.41 4.17Z"/><path d="M226.19 156.54c-.66-.37-.98-1.06-.98-2.09s.19-1.99.56-2.92l.28-.7-.84.42c-.47.37-.89.65-1.26.83-.19.09-.51.28-.98.56s-.84.51-1.12.7c-.65.37-1.24.35-1.75-.07s-.63-1.04-.35-1.88c.37-.93 1.38-2.04 3.01-3.34 1.63-1.3 3.11-2.13 4.42-2.5 1.12-.28 1.92-.05 2.38.7.19.28.33.37.42.28.47-.18.79-.09.98.28l-.14.14c-.09.19-.19.35-.28.49-.09.14-.19.3-.28.49-1.87 1.86-3.08 3.52-3.65 5.01-.47 1.48-.42 2.46.14 2.92.84.56 2.76.23 5.75-.97 3.08-1.2 6.92-3.52 11.5-6.95 1.59-1.2 2.34-1.53 2.24-.97-.09.37-1.38 1.44-3.86 3.2-2.48 1.76-4.65 3.15-6.52 4.17a31.11 31.11 0 0 1-3.65 1.67c-1.22.46-2.36.76-3.44.9s-1.94.02-2.59-.35Zm-3.79-5.42c-.47.56-.66.83-.56.83s.89-.42 2.38-1.25c3.18-1.76 4.77-3.1 4.77-4.03-.19-.56-.94-.37-2.24.56-1.59 1.02-3.04 2.32-4.35 3.89ZM181.03 107.01c-4.4.46-7.36-.9-8.9-4.1-1.54-3.2-1.15-6.98 1.19-11.33 2.99-5.38 7.38-8.95 13.18-10.71.93-.28 2.24-.42 3.93-.42h2.38l-.28-.56c-.38-.83-.33-2.04.14-3.62l.28-.97-.7-.28c-1.5-.56-2.48-1.53-2.94-2.92-.47-1.39-.28-2.55.56-3.48.47-.65.89-.79 1.26-.42.09 0 .05.09-.14.28-.38.37-.61.7-.7.97-.75 1.95-.42 3.43.98 4.45 1.12.83 1.78 1.11 1.96.83.56-1.2 2.1-2.55 4.63-4.03 1.4-.83 2.97-1.41 4.7-1.74 1.73-.32 3.02-.3 3.86.07.93.46 1.4 1.11 1.4 1.95 0 1.11-1.4 2.23-4.21 3.34-2.52.93-4.68 1.39-6.45 1.39h-2.38l-.56 1.11c-.38.65-.56 1.44-.56 2.36 0 .74.14 1.3.42 1.67.37.56.51.83.42.83-.38 0-.7-.05-.98-.14-2.52-.93-5.84-.23-9.96 2.09-3.74 2.04-6.64 4.82-8.69 8.34-2.06 3.52-2.76 6.72-2.1 9.6.56 2.69 2.15 4.17 4.77 4.45 1.68.19 3.41.05 5.19-.42 3.83-1.02 7.99-3.38 12.48-7.09 2.8-2.41 5.37-5.47 7.71-9.18.56-.93 1.19-2.04 1.89-3.34.7-1.3 1.28-2.39 1.75-3.27.47-.88.65-1.37.56-1.46-.28-.28-2.71.65-7.29 2.78-2.43 1.11-4.39 2.87-5.89 5.28l-.7 1.39c.19.19.19.28 0 .28-.94 0-.94-.93 0-2.78.28-.65.7-1.25 1.26-1.81 1.4-1.58 4.44-3.2 9.11-4.87 1.87-.65 3.02-1.09 3.44-1.32.42-.23.58-.44.49-.63-.09-.19-.09-.28 0-.28s.33.05.7.14c.47.19 2.01-.42 4.63-1.81 5.05-2.59 7.57-4.22 7.57-4.87 0-.19.09-.23.28-.14 1.03.56-.84 2.09-5.61 4.59-.84.46-1.73.93-2.66 1.39-2.52 1.21-3.79 1.95-3.79 2.23 0 1.11-1.17 3.8-3.51 8.07-1.59 2.97-3.74 5.79-6.45 8.48-1.59 1.58-3.13 2.92-4.63 4.03-4.49 3.34-8.83 5.19-13.04 5.56Zm14.3-31.98c0 .09.65.09 1.96 0s2.43-.23 3.37-.42c2.34-.46 4.21-1.39 5.61-2.78.65-.74.79-1.3.42-1.67-.19-.18-.56-.28-1.12-.28-2.15 0-4.72.97-7.71 2.92-1.68 1.11-2.52 1.86-2.52 2.22Z"/></g></svg>