<svg xmlns="http://www.w3.org/2000/svg" viewBox="0 0 470.51 207.78"><g data-name="Слой 2"><g data-name="Слой 1"><path d="M39.94 81.09c-1.13-.2-1.79-1-2-2.44q-.31-6.23 18.11-28.91l1.22-2-1.22-.46q-14-5.32-19.19-6.24-.61 0-10.43 5-13.04 7.2-20.87 15.57c-2.86 3.14-4.29 5.53-4.29 7.15 0 .21.15 0 .46-.45l.15-.61.15.61-.46 1.06c-.3.71-.71.81-1.23.31s-.4-1.88.62-3.81A34.44 34.44 0 0 1 7.86 57a91.21 91.21 0 0 1 15.35-10.8q1.7-.91 5.68-2.82c2.66-1.27 4.14-2 4.45-2.21l.92-.61-.76-.15a31.67 31.67 0 0 0-9.67-1.21q-11.2.6-18.42 5.78C3.46 46.44 2.34 47.81 2 49.13c0 .71.92 1.06 2.77 1.06.2 0 .3.06.3.16-.41.4-1.23.5-2.45.3-.52-.2-.82-.4-.92-.61q-1.38-2.88 4.6-7 6.75-4.26 17.19-4.72a42.33 42.33 0 0 1 10.74 1.22l1.69.3 13-5.93q27.4-12.33 30.92-14.31a9.49 9.49 0 0 0 3.07-2.43A98.65 98.65 0 0 1 97.34 4.53a25.94 25.94 0 0 1 6.75-4.41 2.74 2.74 0 0 1 2 .15c.61.31.87.71.77 1.22q0 1.68-7.22 7-8.9 6.71-10.89 7.76a7.62 7.62 0 0 0-2.61 1.68q-4.61 4-16.42 18.57-9.06 10.65-9.06 11.41Q79.08 55.68 82 53.09c.72-.61 1.18-.82 1.38-.61s0 .66-.92 1.37Q80 55.36 76 54.46t-16-5.79l-1.23 1.52q-12.7 15.38-17.29 23.9c-1.74 3.35-2.26 5.43-1.54 6.24.51.51.51.76 0 .76Zm18.11-34.24a18.92 18.92 0 0 0 1.69-2q3.06-3.66 8.75-10.81t7.83-9.59l2.14-2.58L76 23q-7.06 3.46-28.23 13l-8.29 3.65-1.38.76a5.11 5.11 0 0 1 .92.15q4 1.08 8.75 2.59t7.52 2.59Zm33.46-34.1 1.07-.75a87.86 87.86 0 0 0 11.67-9.74l.15-.3a22.89 22.89 0 0 0-2.76 2q-2 1.52-8.75 7.45Z"/><path d="M88.13 64.8a2.16 2.16 0 0 1-1.07-.8 3.54 3.54 0 0 1-.31-1.82q.3-3 5.37-8.83L93.35 52l-.92.76q-2.43 1.85-7.37 4.89c-3.17 1.73-5.12 2.18-5.83 1.37q-1.23-1.52.61-4.11 3.22-4.26 3.69-2.13.15.61-1.23 2a10.12 10.12 0 0 0-1.23 1.52 14.63 14.63 0 0 0-.92 1.52c-.21.41-.26.66-.15.76q.6.61 5.06-2a54.46 54.46 0 0 0 11.36-8.22A10.94 10.94 0 0 1 98.26 47c1.23-.1 1.84.15 1.84.76 0 .41-1.28 1.77-3.84 4.11a57.37 57.37 0 0 0-7.21 8.37c-1.43 2.33-1.64 3.6-.61 3.8A7.26 7.26 0 0 0 92.81 63c1.79-.92 4.89-2.84 9.29-5.79l1.45-1 1.77-1.21 1.38-1 2-1.37a.42.42 0 0 1 .53.07c.16.16.13.34-.07.54l-.77.61-2.3 1.67q-12.75 8.67-15.81 9.28c-1.23.2-1.95.2-2.15 0Z"/><path d="M104.55 61c-1.33-1.32-1.23-3 .31-5.18a10.11 10.11 0 0 1 4.91-4.26c1.23-.5 2.09-.5 2.61 0 .41.31.48.82.23 1.53a3.85 3.85 0 0 1-1.46 1.82 9.83 9.83 0 0 1-4.45 1.83 1.27 1.27 0 0 0-1.07.76q-1.84 3.2 1.68 3.65 6.91 0 17.19-7.15l1.84-1.22c.11-.1.26-.1.47 0a.31.31 0 0 1 .15.46 47.19 47.19 0 0 1-12.89 7.3q-7.21 2.75-9.52.46Zm2.3-5.18a6.69 6.69 0 0 0 3.07-1.21 4.72 4.72 0 0 0 1.84-2c.1-.31 0-.46-.3-.46l-1.69.92c-2.05 1.54-3.02 2.45-2.92 2.75Z"/><path d="M131.25 62.83q-3.21-1.06-1.07-7.92l.31-1.22c-.21-.2-.87.16-2 1.07a37.3 37.3 0 0 0-3.22 2.82 13.93 13.93 0 0 0-2.3 2.51 2.61 2.61 0 0 0-.46 1.06c0 .41-.21.41-.62 0q-1.23-1.21 3.53-7.61a28.81 28.81 0 0 1 4.3-4.72c.82-.7 1.43-.81 1.84-.3s-.2 1.32-1.53 2.74a18 18 0 0 0-3.07 3.5 2.38 2.38 0 0 0 .61-.46 39.31 39.31 0 0 1 12-7.15 3.4 3.4 0 0 1 2.61-.15 1.47 1.47 0 0 1 .77 1.67 10.67 10.67 0 0 1-1.77 3.27 17.38 17.38 0 0 1-2.68 3.28c-.72.71-1.23.91-1.54.6-.1-.1 0-.3.46-.6a25.49 25.49 0 0 0 3.07-3.81 11.88 11.88 0 0 0 1.51-3.35q0-1.37-6.14 1.83a1.83 1.83 0 0 1-.46.3 32.23 32.23 0 0 0-4.4 2.74.62.62 0 0 0 .15.46c.31.3.2 1.17-.31 2.59a12.93 12.93 0 0 0-.3 3c-.11 2.13.56 3.2 2 3.2q3.08 0 9.36-4.26 1.23-.76 4.61-3.5l2.15-1.53.46-.3c.2-.1.35-.1.46 0v.61l-1.23.91a78.94 78.94 0 0 1-11.2 7.61c-2.52 1.28-4.46 1.62-5.9 1.11Z"/><path d="M145.68 61.46A3.08 3.08 0 0 1 144.6 58a13.24 13.24 0 0 1 3.15-4.57 15.6 15.6 0 0 1 4.84-3.5 4 4 0 0 1 2.45-.38c.72.15 1.07.48 1.07 1 0 .81-.61 1.88-1.84 3.19-1.53 1.32-2.56 2-3.07 2-.71 0-.61-.3.31-.91a12.69 12.69 0 0 0 2.92-2.51c.81-1 1.07-1.6.76-1.9s-1.28.1-2.91 1.21a16.5 16.5 0 0 0-5.14 4.8c-1.28 1.88-1.67 3.27-1.15 4.18s1.94 1.22 4.6.92a28.49 28.49 0 0 0 8.59-2.59 51.81 51.81 0 0 0 8.14-4.94c.31-.2.71-.46 1.23-.76l.76-.61a.61.61 0 0 1 .62.46l-.77.6a57.41 57.41 0 0 1-6.45 4.31l-3.37 1.67q-9.68 4.69-13.66 1.79Z"/><path d="M165 61c-1.34-1.32-1.23-3 .3-5.18a10.16 10.16 0 0 1 4.91-4.26q1.85-.75 2.61 0c.41.31.49.82.23 1.53a3.73 3.73 0 0 1-1.46 1.82 9.78 9.78 0 0 1-4.45 1.83 1.29 1.29 0 0 0-1.07.76q-1.84 3.2 1.69 3.65 6.9 0 17.19-7.15l1.84-1.22c.1-.1.25-.1.46 0a.31.31 0 0 1 .15.46 46.9 46.9 0 0 1-12.89 7.3q-7.19 2.75-9.51.46Zm2.3-5.18a6.73 6.73 0 0 0 3.07-1.21 4.79 4.79 0 0 0 1.84-2c.1-.31 0-.46-.31-.46l-1.69.92c-2.02 1.54-3 2.45-2.89 2.75Z"/><path d="M186.81 65.57c0-1.42 1.12-3.66 3.37-6.7l1.08-1.52-.16.15a1.35 1.35 0 0 0-.53.23c-.26.15-.49.28-.69.38-3.07 1.62-5 2.43-5.68 2.43a1.26 1.26 0 0 1-.92-.3q-1.08-1.52 2-5.33 3.22-4.41 5.07-5.17l.46-.15c.4 0 .71.3.92.91.2.3-.52 1.22-2.15 2.74a29.73 29.73 0 0 0-2.58 2.51c-.87 1-1.56 1.78-2.07 2.43s-.72 1-.62 1.15.43 0 1.31-.39 1.89-.83 3.07-1.44 2.17-1.17 3-1.68a39.7 39.7 0 0 0 3.53-2.73c1.63-1.53 2.61-2.14 2.91-1.83a1.09 1.09 0 0 1 .16 1.22 18.69 18.69 0 0 1-2.76 2.89q-6.6 6.54-7.68 9.28-1.38 3.66 5.37.61 8.13-3.65 20.57-12.63a.63.63 0 0 1 .77.3 85.67 85.67 0 0 1-10.9 7.46q-7.83 5-11.82 6.39c-3.35 1.32-5.03.92-5.03-1.21Zm9.82-19.94c-.92-1.12-1-2-.31-2.74a1 1 0 0 1 .85-.38 1.77 1.77 0 0 1 .69.3.4.4 0 0 1 .15.54c-.41.91-.41 1.57 0 2a2.89 2.89 0 0 0 2.3.46c1.43-.2 2.15-.46 2.15-.76a.13.13 0 0 1 .15-.15c.21 0 .31.15.31.45a.62.62 0 0 1-.15.46 4.52 4.52 0 0 1-3.22.91 3.65 3.65 0 0 1-2.92-1.09ZM234.84 65.57c0-1.42 1.13-3.66 3.38-6.7l1.07-1.52-.15.15a1.44 1.44 0 0 0-.54.23c-.25.15-.48.28-.69.38q-4.6 2.43-5.68 2.43a1.27 1.27 0 0 1-.92-.3c-.71-1-.05-2.79 2-5.33q3.23-4.41 5.06-5.17l.46-.15c.41 0 .72.3.92.91.21.3-.51 1.22-2.14 2.74a29.76 29.76 0 0 0-2.54 2.51c-.87 1-1.56 1.78-2.07 2.43s-.72 1-.61 1.15.43 0 1.3-.39 1.89-.83 3.07-1.44 2.17-1.17 3-1.68a37 37 0 0 0 3.53-2.73c1.64-1.53 2.61-2.14 2.92-1.83a1.07 1.07 0 0 1 .15 1.22 17.66 17.66 0 0 1-2.76 2.89q-6.6 6.54-7.67 9.28-1.38 3.51 5.06.76 8.13-3.49 20.57-12.63a.86.86 0 0 1 1.07.15 86.23 86.23 0 0 1-10.89 7.46q-7.83 5-11.82 6.39-5.08 1.98-5.08-1.21ZM223.11 186.37a26 26 0 0 1-8.28-1.06q-5.84-2.3-6.14-7.16a11.68 11.68 0 0 1 1.23-5c1.63-3.14 4.58-6 8.82-8.45a40.08 40.08 0 0 1 14.2-4.94 9.88 9.88 0 0 0 2.3-.46l3.84-5q23.63-30.28 37-42.92 4-4 4.61-3.81a1 1 0 0 1 1.07 1.07 13.61 13.61 0 0 1-1.53 2l-10 10.8-.61.46.61-.15 6.6-3q12.44-6.84 13.66-11.56a1.06 1.06 0 0 0-.31-1.07c-.2-.3-.92-.45-2.15-.45q-4.44-.32-11.51 3a26.25 26.25 0 0 0-8 5l-1.38 1.07c-.21-.31.23-1 1.31-2.06a23.42 23.42 0 0 1 4.06-3.12 37.56 37.56 0 0 1 12-4.87q3.54-.75 5.38.31a2.45 2.45 0 0 1 1.68 2.28q-.3 4.72-12 11.26-3.84 2.13-9.51 4.72l-1.38.46.76.15q9.36 1.83 11.36 8.37a13 13 0 0 1 .31 4.41 16.78 16.78 0 0 1-.77 5.33q-.62 2-1.69 4.87a64 64 0 0 1-5.65 10.3l-1.38 2.13a5.12 5.12 0 0 0 1.77.08 36.51 36.51 0 0 0 3.76-.46c1.53-.25 2.76-.48 3.68-.68a19.06 19.06 0 0 0 7.67-3.66 1.93 1.93 0 0 1 1.08-.45q.76 0 .15.6a24.72 24.72 0 0 1-6.6 3.81 51.93 51.93 0 0 1-10.59 2 3.29 3.29 0 0 0-2.61 1.06 7 7 0 0 0-.46.61q-14.58 18.27-36.52 23a47.32 47.32 0 0 1-9.84 1.18Zm-8.9-2.28q6.91 2.9 19-.15a63.82 63.82 0 0 0 28.89-16.14q6.43-6.39 6.14-6.85l-2.92.16q-4 0-8.13-.31-18.42-1.37-19.65-.45c-.1.1-.59.71-1.46 1.82s-1.92 2.49-3.14 4.11-2.25 3-3.07 4.11q-5.84 7.92-7.22 10.05-.61 1.37-1.38.6-.92-1.22 4.61-9.28l5.52-7.46 2.46-3.5-2 .31a37.89 37.89 0 0 0-10.66 3.8 28 28 0 0 0-8.06 6.09q-5.53 6.54-2.3 10.65a6.08 6.08 0 0 0 3.37 2.44Zm53.11-24.35a5.55 5.55 0 0 0 2.14-.46 13 13 0 0 0 2-2.59q9.82-14.91 8.59-23.59c-.71-4.36-3.89-7-9.51-8.06a3.32 3.32 0 0 0-2.38-.31 3.64 3.64 0 0 0-1.54.69c-.25.25-1.05 1.14-2.37 2.66l-11.67 13.85q-14 17-14 17.2l2.92-.15q5.22 0 9.67.3 12.3.61 16.15.46Z"/><path d="M288.34 167.35c0-1.42 1.12-3.66 3.38-6.7l1.07-1.52-.15.15a1.32 1.32 0 0 0-.54.23c-.26.15-.49.28-.69.38q-4.61 2.43-5.68 2.43a1.26 1.26 0 0 1-.92-.3q-1.08-1.52 2-5.33 3.21-4.41 5.06-5.17l.46-.15c.41 0 .71.3.92.91.2.3-.51 1.22-2.15 2.74a29.73 29.73 0 0 0-2.53 2.51c-.87 1-1.56 1.78-2.07 2.44s-.72 1-.62 1.14.44 0 1.31-.38 1.89-.84 3.07-1.45 2.17-1.16 3-1.67a40.62 40.62 0 0 0 3.53-2.74c1.64-1.52 2.61-2.13 2.92-1.83a1.11 1.11 0 0 1 .15 1.22 18.69 18.69 0 0 1-2.76 2.89q-6.6 6.54-7.68 9.28-1.38 3.51 5.07.76 8.13-3.49 20.56-12.63a.87.87 0 0 1 1.08.15 85.67 85.67 0 0 1-10.9 7.46q-7.83 5-11.81 6.39-5.08 1.98-5.08-1.21Z"/><path d="M319.8 164.61q-3.23-1.06-1.07-7.92l.3-1.21c-.2-.21-.87.15-2 1.06a35.84 35.84 0 0 0-3.22 2.82 14.6 14.6 0 0 0-2.31 2.51 2.76 2.76 0 0 0-.46 1.06c0 .41-.2.41-.61 0q-1.23-1.22 3.53-7.61a28.37 28.37 0 0 1 4.3-4.72c.81-.7 1.43-.81 1.84-.3s-.21 1.32-1.54 2.74a18.67 18.67 0 0 0-3.07 3.5 2.26 2.26 0 0 0 .62-.46 39.51 39.51 0 0 1 12-7.15 3.4 3.4 0 0 1 2.61-.15 1.47 1.47 0 0 1 .77 1.67 11.16 11.16 0 0 1-1.77 3.27A17 17 0 0 1 327 157c-.71.71-1.22.91-1.53.61-.1-.1 0-.31.46-.61a25.49 25.49 0 0 0 3.07-3.81 11.7 11.7 0 0 0 1.53-3.35q0-1.36-6.13 1.83a1.74 1.74 0 0 1-.46.3 32.66 32.66 0 0 0-4.46 2.74.59.59 0 0 0 .16.46c.3.31.2 1.17-.31 2.59a12.36 12.36 0 0 0-.31 3c-.1 2.13.56 3.2 2 3.2q3.06 0 9.36-4.26 1.23-.77 4.6-3.5l2.15-1.53.46-.3c.21-.1.36-.1.46 0v.63l-1.22.91a78.88 78.88 0 0 1-11.21 7.61c-2.44 1.24-4.39 1.6-5.82 1.09Z"/><path d="M355.87 164.91q2.44.47 14.88-9.13a11.72 11.72 0 0 1 2.46-1.67c.2-.1.36-.08.46.07a.28.28 0 0 1 0 .38q-.32.31-2.61 2.13l-3 2.21c-1.18.86-2.1 1.55-2.77 2s-1.43 1.07-2.3 1.68-1.56 1.06-2.07 1.37-1.1.63-1.76 1a5.2 5.2 0 0 1-1.62.61l-1.38.15a2.18 2.18 0 0 1-1.3-.23 5.42 5.42 0 0 1-1.15-.91c-1-1-1.33-2.74-.92-5.18.1-.3.25-.76.46-1.37s.33-1 .38-1.29a1.08 1.08 0 0 0-.08-.69c-.82.61-1.63 1.27-2.45 2q-4.75 4-4.76 5.33c0 .2-.1.3-.31.3-.61 0-.82-.25-.61-.76a57.14 57.14 0 0 1 4-6.54 41.07 41.07 0 0 0 3.68-6.24c.1-.51 0-.81-.15-.91a2.47 2.47 0 0 0-1.38.15q-5.83 1.22-13.81 7.76a29.57 29.57 0 0 0-2.23 2l-2.61 2.59a5.88 5.88 0 0 0-1.15 1.3l-.15.3c-.1.1-.28.08-.54-.08s-.38-.27-.38-.38c0-.61 1.68-2.89 5.06-6.85q1.85-2.13 3.07-3.34c1-1 1.74-1.42 2.15-1.22a.61.61 0 0 1 .15.45c0 .51-.66 1.43-2 2.74l-.31.31a16.65 16.65 0 0 0 1.53-1.07c4.51-3.65 8.39-5.48 11.67-5.48a3.72 3.72 0 0 1 2.15.54 1.52 1.52 0 0 1 .61 1.59q-.15 1.23-2.3 4.11a21.94 21.94 0 0 0-1.38 1.83l-.16.15a1.66 1.66 0 0 0 .46-.3 5 5 0 0 1 2.15-1.07 1.25 1.25 0 0 1 .69.16.49.49 0 0 1 .23.45v.54a2.17 2.17 0 0 1-.23.76 2.33 2.33 0 0 0-.23.83c-1.01 4.33-.4 6.62 1.86 6.92Z"/><path d="M368.76 161.72a2.23 2.23 0 0 1 0-2.29 14 14 0 0 1 3.06-4.41 19.54 19.54 0 0 1 2.61-2.44l1.54-.91c.51 0 .77-.15.77-.46 0-.1.25-.15.76-.15.72.21 1.13.46 1.23.76-.2.21-.36.26-.46.15a1 1 0 0 0-.46.61l-.31 1.42a3 3 0 0 0 .62 2.74q4.61 4.11 12.28-1.67l1.07-.61c.41-.2.66-.1.77.3l-1.84 1.37a15.14 15.14 0 0 1-5.68 2.59 8.55 8.55 0 0 1-6.14-.76 8.08 8.08 0 0 1-1.38-1.37c-.21-.4-.36-.51-.46-.3a15.13 15.13 0 0 1-2.92 3.95c-2.35 2.19-4.04 2.69-5.06 1.48Zm.92-.16q.6.76 3.53-2.13a10.14 10.14 0 0 0 3.07-4.56 4.93 4.93 0 0 0 .3-1.37l-.15-.61-1.54 1.52a25.1 25.1 0 0 0-4.29 4.72c-.72 1.32-1.03 2.13-.92 2.43Z"/><path d="M358.47 207.68c-.1.2-.36.1-.77-.31l-.46-.15 1.38-2.13 14.74-23.89q18.57-29.22 27.32-40c.71-.81 1.23-1.17 1.53-1.07s.46.06.46.16q0 .77-5.52 8.67l-3.69 5.18.31.45.31.61 2.76-1.52a24 24 0 0 1 5.83-2.28c1 0 1.64.3 1.84.91q.62 1.51-2.76 5.94l-2 2.28q5.82 2.28 14.27-2.44 2.61-1.51 5.37-3.5c.21-.2.38-.25.54-.15s.18.25.07.46l-.76.76a32.55 32.55 0 0 1-5.68 3.65q-8 4.11-14.73 2l-1.39 1.52q-5.52 5.17-7.52 1.68a5.25 5.25 0 0 1 0-4l.16-.76c-.21.3-1.44 2-3.69 5.17q-7.81 10.67-17.65 26.94-9.2 14.75-10.27 15.82Zm32.85-42.77c.81.21 1.78-.15 2.91-1.06a13.64 13.64 0 0 0 1.31-1.07c.56-.51 1-1 1.45-1.37l.46-.76a10.06 10.06 0 0 1-3.53-3.35c-.1-.3-.41-.25-.92.15a6.32 6.32 0 0 0-1.53 2.29c-1.13 3.14-1.18 4.87-.15 5.17Zm6.9-5c.1 0 .39-.25.85-.76s1-1.14 1.61-1.9a18.87 18.87 0 0 0 1.38-1.91 8.13 8.13 0 0 0 1.23-2.13c.2-.5.25-.81.15-.91q-.46-.47-5.07 1.67c-2.45 1.32-3.68 2.24-3.68 2.74 0 .31.44.92 1.31 1.83a3.52 3.52 0 0 0 2.22 1.35Z"/><path d="M419.25 167.35c0-1.42 1.12-3.66 3.37-6.7l1.08-1.52-.16.15a1.35 1.35 0 0 0-.53.23c-.26.15-.49.28-.69.38-3.07 1.62-5 2.43-5.68 2.43a1.26 1.26 0 0 1-.92-.3q-1.08-1.52 2-5.33 3.23-4.41 5.07-5.17l.46-.15c.4 0 .71.3.92.91.2.3-.52 1.22-2.15 2.74a28.33 28.33 0 0 0-2.53 2.51c-.87 1-1.56 1.78-2.07 2.44s-.72 1-.62 1.14.43 0 1.31-.38 1.89-.84 3.06-1.45 2.18-1.16 3-1.67a42.21 42.21 0 0 0 3.53-2.74c1.63-1.52 2.61-2.13 2.91-1.83a1.09 1.09 0 0 1 .16 1.22 18.46 18.46 0 0 1-2.77 2.89q-6.6 6.54-7.67 9.28-1.38 3.51 5.07.76 8.13-3.49 20.56-12.63a.87.87 0 0 1 1.08.15 85.67 85.67 0 0 1-10.9 7.46q-7.83 5-11.82 6.39c-3.39 1.32-5.07.92-5.07-1.21Z"/><path d="M449.33 166.43a1.42 1.42 0 0 1-.46-1.37q.3-3.34 6.9-9.89l.92-1.06h-.3a5.83 5.83 0 0 0-1.08.6q-8.13 6.71-11.05 5.94c-1.43-.51-1.64-1.62-.61-3.35a16 16 0 0 1 1.38-1.67l.46-.46c1-1 1.63-1.22 1.84-.61.1.21-.36 1-1.38 2.29-1.33 1.52-1.84 2.43-1.54 2.73s1.18-.15 2.92-1.06a25.21 25.21 0 0 0 5.83-3.65l1.23-.92-.61-.76q-2.31-2.13 1.53-5.93 4.45-4.11 5.53-1.53c.3.72.1 1.73-.62 3.05a34.1 34.1 0 0 1-2.45 3.65l-.46.46.46-.15a1.58 1.58 0 0 1 1.15-.31 1.62 1.62 0 0 1 1.15.31c.2.3-.56 1.27-2.3 2.89q-6 5.93-7.68 9.28l-.46.91.62.16a15.74 15.74 0 0 0 2.76-.76 37.45 37.45 0 0 0 4-2.29q4.14-2.58 11.82-8.06a2.46 2.46 0 0 1 1.53-.46l.16.15-.62.61-11.36 7.92a43.84 43.84 0 0 1-4.29 2.58c-2.57 1.33-4.25 1.58-4.92.76Zm5.06-13.43c.51.2 1.28-.3 2.3-1.52 2.25-2.44 3.38-4.21 3.38-5.33q0-.3-1.08 0a11.48 11.48 0 0 0-4 3.65c-1.11 1.67-1.32 2.73-.6 3.2Z"/></g></g></svg>