<?xml version="1.0" encoding="utf-8"?>
<!-- Generator: Adobe Illustrator 27.0.0, SVG Export Plug-In . SVG Version: 6.00 Build 0)  -->
<svg version="1.1" id="Слой_1" xmlns="http://www.w3.org/2000/svg" xmlns:xlink="http://www.w3.org/1999/xlink" x="0px" y="0px"
	 viewBox="0 0 102.7 111.6" style="enable-background:new 0 0 102.7 111.6;" xml:space="preserve">
<style type="text/css">
	.st0{fill:#264F26;}
</style>
<g id="Слой_2_00000102539336044593773200000008746994232278780301_">
	<g id="Слой_1-2">
		<path class="st0" d="M42.6,101C14.4,109.3-9.8,79.7,3.9,53.7C12.7,37.5,32.9,31.5,49,40.2c0,0,0,0,0.1,0
			C74.8,54.5,70.8,92.5,42.6,101z M42.6,101c22.2-6.6,30.7-34.2,15.9-52C44,31.2,15.6,33.9,4.7,54.1C-9.1,79.7,14.7,109.2,42.6,101
			L42.6,101z"/>
		<path class="st0" d="M59.1,61.8c6.9,23-17.6,43.1-38.9,31.8C7,86.8,1.8,69.4,9.2,56.5C20.8,35.4,52.2,38.8,59.1,61.8z M59.1,61.8
			C52.2,39,21.2,35.9,9.9,56.9C3,69.3,8,86.3,20.6,92.9C41.5,104.2,65.8,84.7,59.1,61.8L59.1,61.8z"/>
		<path class="st0" d="M69.6,111.6C40.2,111.5,25.4,76.2,46,55.2c13-13,34.1-13,47.1,0c0,0,0,0,0,0
			C113.7,76.2,98.9,111.5,69.6,111.6z M69.6,111.6c23.2,0.1,39.2-24,30.1-45.3c-11.4-26.5-48.7-26.5-60.1,0
			C30.4,87.6,46.3,111.7,69.6,111.6z"/>
		<path class="st0" d="M96.5,78.7c0,24-29.1,36.2-46.3,19.4c-10.7-10.3-10.7-28.4,0-38.7C67.4,42.5,96.5,54.7,96.5,78.7z M96.5,78.7
			c-0.1-23.8-29-35.6-45.7-18.7c-10.2,9.9-10.2,27.6,0,37.5C67.6,114.4,96.4,102.6,96.5,78.7L96.5,78.7z"/>
		<path class="st0" d="M30,26.7l-5.9,11.5L24,38.3c-3.9-2-7.8-4-11.7-6.1l-0.2-0.1l0-0.2l-2.7-8.7L9.4,23l0.1-0.2l4-5.7
			c0.1-0.1,0.1-0.1,0.3-0.2l7-2.1l0.1-0.1l0.1,0.1c2.2,0.9,4.4,1.8,6.6,2.7C28.4,20.2,29.4,24,30,26.7L30,26.7z M30,26.7
			c-0.9-2.5-2.1-6-3-8.6l0.2,0.2c-2.2-0.8-4.3-1.7-6.5-2.5H21l-7,2.1l0.2-0.2l-3.9,5.7l0.1-0.4l2.6,8.8l-0.2-0.3
			c3.8,2,7.5,4.2,11.2,6.3l-0.3,0.1L30,26.7z"/>
		<path class="st0" d="M9.9,23.1c2.5,0,5,0.1,7.5,0.4c2-0.6,4-1.2,6-1.7l-0.2,0.1c1.3-1.4,2.7-2.7,4.2-4c-1.1,1.6-2.4,3.1-3.6,4.6
			h-0.1c-2,0.7-4,1.3-6.1,1.9C15,24.1,12.4,23.7,9.9,23.1L9.9,23.1z"/>
		<path class="st0" d="M20.9,15.3c1.2,2.2,2.2,4.4,3.1,6.8c0.1,4,0.1,8,0,12c0,1.3-0.1,2.6-0.2,4c-0.1-1.3-0.2-2.6-0.4-3.9
			c-0.3-4-0.4-7.9-0.5-11.9C22.1,20.1,21.4,17.8,20.9,15.3L20.9,15.3z"/>
		<path class="st0" d="M23.9,38c-2.3-4.6-4.6-9.2-6.7-13.8c-1.4-2.1-2.5-4.4-3.2-6.7c1.6,1.9,3,4.1,4.1,6.4C20,28.5,22,33.2,23.9,38
			z"/>
		<path class="st0" d="M12.5,31.9c1.1-3,2.8-5.7,5-7.9C16.4,26.9,14.7,29.6,12.5,31.9z"/>
		<path class="st0" d="M23.5,22.2c2.5,0.9,4.8,2.4,6.5,4.5C27.5,25.8,25.2,24.2,23.5,22.2L23.5,22.2z"/>
		<path class="st0" d="M12.5,0c1.8,3.5,2.9,7.4,3.4,11.3C14.1,7.8,13,3.9,12.5,0z"/>
		<path class="st0" d="M21.5,10.9c0.3-3,1.4-5.8,3-8.3C24.1,5.6,23.1,8.4,21.5,10.9z"/>
		<path class="st0" d="M10.9,14.1c-2.7-1.2-5.1-3-7-5.3C6.6,10,9,11.8,10.9,14.1z"/>
	</g>
</g>
</svg>
